<svg xmlns="http://www.w3.org/2000/svg" xmlns:xlink="http://www.w3.org/1999/xlink" version="1.1" id="Layer_1" x="0px" y="0px" viewBox="0 0 1246.8 635.1" style="enable-background:new 0 0 1246.8 635.1;" xml:space="preserve" foxified="">
<style type="text/css">
	.st0{opacity:0.251;fill:#EF8467;enable-background:new    ;}
	.st1{opacity:0.251;fill:#F2B366;enable-background:new    ;}
	.st2{opacity:0.251;fill:#9DEF67;enable-background:new    ;}
	.st3{fill:none;stroke:#8F99C6;}
	.st4{fill:none;stroke:#8F99C6;stroke-width:0.885;}
	.st5{fill:none;stroke:#8F99C6;stroke-width:0.976;}
	.st6{fill:#FFFFFF;}
	.st7{fill:none;stroke:#707070;}
	.st8{fill:#FFA50B;}
	.st9{fill:#052440;}
	.st10{font-family:'ArialMT';}
	.st11{font-size:10.6059px;}
	.st12{fill:#121A3B;}
	.st13{font-family:'Montserrat-SemiBold';}
	.st14{font-size:10.6039px;}
	.st15{font-size:10.6084px;}
	.st16{enable-background:new    ;}
	.st17{fill:none;stroke:#052440;stroke-miterlimit:10;}
</style>
<g id="Group_444" transform="matrix(1, 0, 0, 1, 0.5, 0.525)">
	<path id="Path_547" class="st0" d="M882,242.8c2.2-4.3,58.9-83.3,58.9-83.3s45.9-52.7,54.6-8.8S863.4,387.9,863.4,387.9   s-56.6,53.6-63.1,17.2S882,242.8,882,242.8z"/>
	<path id="Path_546" class="st0" d="M640.7,262.4c0,0-52.3-1.5-27.4-32.1s59.3-65.9,59.3-65.9s14.7-16.6,34.2,0s-8.5,61.1-8.5,61.1   s-13.8,34.6-25.7,36.9S640.7,262.4,640.7,262.4z"/>
	<path id="Path_545" class="st1" d="M441,313.1c0,0,12.6-25.8,33.1-25.8c7,0,15.3,3.5,24.4,12.9c33.9,35.4,0,69.9,0,69.9   s-21.7,37.1-57.5,20.1s-12-55.7-12-55.7L441,313.1z"/>
	<path id="Path_544" class="st2" d="M201.2,346.4c-10-32.1,5.5-37.4,71.9,4.3s262.8,130.2,285,136.5s129.9,18.4,180.1,19.7   s76.4,10.7,76.4,10.7s48.9,24.3,0,31.6s-212,11.5-274.2,0S361,517.1,347.5,506.9C334,496.7,211.3,378.5,201.2,346.4z"/>
	<g id="Group_412">
		<path id="path1478" class="st3" d="M450.8,241.9l0.7,0.5l2.7,0.3l2,1.1l3.7,1.4l0.7,0.8h2.7l2-1.4h2.3l2-1.1l2.3-1.6l0.3-1.6    l0.3-2.5v-1.6l1.7-1.9l3.4-0.5l1.7,1.4l3,3l1.3,1.6l1.7,1.1l1.7-1.4V237l1.3-2.2l2.7-0.8l4-0.3l0.3-2.2l-0.3-1.6l-1-1.6l-1-2.2    l-0.3-1.9l2.7-3.3l1.7-2.8l1.3-3l1.7-1.6l2-0.3l2.3-1.1l-0.7-1.9l-2-0.5l-2-1.4l-1-1.1l3.7-4.4l3-1.1l2.3-1.6h2.4l3.3,2.5l2.7,1.4    l3.3,0.3l4.4,2.8l0.3,1.9l1.7,1.9l2,1.9l3,1.1l2.3-0.8l2.3-1.4l2-1.4l1.3-0.8l-0.7-1.4l-1.3-1.4l-0.3-1.4l1-4.1l4-3.8l2.3-0.8    l2.7-3.6l1.3-2.2l2.7-0.6l3-1.9h4.4l3.7-0.5l1.7-2.5l1-4.7l-0.3-2.7l-0.7-1.4l0.3-1.4l2,0.8l2.7,1.1l1.7,1.1l1.7,1.1l2-0.3    l0.7-2.5l-0.7-1.9l-2.4-2.5l-3.3-2.7l-2-1.6l-4-1.6l-3.7-0.3l-3.3-2.5l-1.3-2.2v-3.3l3.3-5.2l4-2.7l0.7-2.2l0.7-3.6l1-1.9l3.4-1.4    l3-1.6l2.4-3.8l0.1-0.1l-0.7-0.5l-1.3-1.4l-1-1.4l-1.3-1.9l-1.3-0.8l-1.7-1.4l-1-2.7v-7.4l-0.7-2.8l-1-2.2l-0.3-4.4l-0.7-2.5v-2.2    l-2-3.3v-2.2l1.3-3.6l0.3-4.4v-2.7l-1.3-1.1l-1.7-3.6l-3.7-1.6l-3-0.5l-3-1.4h-2.7l-1.7-1.4h-4.4l-2,1.4h-2l-0.3-1.6l-1.3-0.8    l-1.3-1.4l-2.3-0.3h-2l-2.7-1.4l-1.3-1.1l-2.3-1.9l-2.3-1.9l-2.4-1.9l-2-1.1l-2.7-1.1l-2.3-1.6h-2.3l-3.7,0.3l-3,0.3l-2.7-0.5    l-2.7-1.1l-2-0.5l-3-0.5l-2.4-2.5l-1.3-0.8l-2-2.2l-2.3-1.4l-2.4-1.4l-2.3-0.8h-4l-2-1.1l-3-2.5l-1-1.4l-2-1.4l-1.7-1.4l-1-1.4    l-0.7-0.5l-0.3-0.8l-1.7-0.8l-1.3,0.3l-1,0.8l-1.3,1.4l-0.3,1.4v2.2l-0.7,1.6l-1.7,0.8l-2.4,2.2v3.6l-1.7,0.8l-1.7,1.1l-3.3,0.8    l-0.7,1.4l-1.3,2.5l-1.3,2.2l-2.7,0.5l-2,0.3l-0.7,1.1v1.9l1,1.1v1.4l-0.7,1.9l-2.3,1.6H432l-2.7,0.5L427,75l-2,1.4l-0.3,1.4    l-0.3,2.2v7.4l-0.7,3.6l-0.7,2.7l-2.3,1.7v1.9l0.3,1.6h2.3l1,1.1l1.3,1.6v2.2l-0.3,1.6l-0.7,2.2l-0.3,2.5L424,111v2.2l0.3,1.6    l1.3,1.1l0.3,1.6l1.7,1.1l2.7,1.6l1,0.8l2.4,0.3l0.3,1.1l1.3,1.4l0.3,2.7v3.6l-1.7,2.5l-1.3,1.6l-1,1.9l-1,2.8l-1.7,2.5l-0.7,1.9    l-2,3.3l-2.4,1.6l-2,0.3l-2.7,3v2.8l-1,0.3l-0.7-0.5l-1-1.1l-1.7-0.3h-2l-3,0.5l-1,1.6l-2.3,1.6l-1.7,1.9l-3.4,2.2l-3.7,0.5h-2.7    l-2.3-1.6l-0.2-0.6l-0.8,4.5v2.8l-2,1.9l-3.7,3.8l-3,4.1l-0.3,3.8v1.9l2.4,2.8l2,3l3,3l3.3,1.1l4.4,0.3l3.4,0.5l4,1.1l3.7,2.8    l2,3.3l2,3.3l3.3,1.4h3l3.3-0.8h2.7l1.7,0.3l3.3,0.8h2.7l1.3,1.1l1.3,1.4h2.4l2-2.5l3.7-2.2l3-0.8l3-0.6l2.3-1.1l1-0.3l1.3,1.4    l1,0.8v1.4l-1.7,0.6v1.6l-0.7,1.4l-1,1.4l0.3,0.5l1.7,2.7v2.8l1,2.2l-1,1.9l-0.7,1.9l-1,1.6v1.6l-0.7,1.6l-1.3,3v3l1.7,1.4    l0.7,2.5l-0.3,3.6l-0.3,1.9L450.8,241.9z"/>
		<path id="path1314" class="st3" d="M198.2,190.3l-0.1-3.3l-1-1.6l-0.7-2.8v-4.4l-1-1.1l-0.7-0.8L192,176l-1-0.8l-2-2.5l-0.7-2.7    l-1-3.8l-1-1.9l-0.7-1.4v-2.5l-1.7-3.3l-0.7-2.5l-1.7-2.2l-0.7-2.2l-0.3-1.6l-2-1.4l-1-1.1l-1.3-1.4l-3-2.7l-0.3-1.4l-2.7-1.6    l-0.2-2l-0.3-2.2v-2.2l-0.7-2.5v-3.3l0.3-3.3V121l-1.3-1.4l-0.3-1.1V117l-1.7-1.9l-0.4-0.3l-3.3,0.5l-2.7,1.6l-4,0.6l-2.7,1.6    l-2,2.5v6.6l-1.7,3l-1.7,1.9l-1.3-0.3l-1-0.5l-2-0.8l-0.7,0.5l-2.3,1.4l-2.3,1.1l-1,1.6h-3.4l-3,0.3l-2,0.5l-1.3,1.1v2.7l-1,0.8    l-2-1.4l-2.7-2.2l-1.7-1.6l-3.7-1.9l-2-0.3h-4l-4,0.5l-4,1.4l-1.7,2.5l-2.3,2.2l-1,2.5v2.5l-1,0.8h-2.7l-3.3,1.1l-1.7,1.9v4.1    l-1,1.9l-1.7,1.1l-3.5,0.6l-1.3,1.8l-1.3,1.8v1.1l1.7,1v1.1l1.3,2.1l1.3,0.7l2.6,0.4l1.3,0.7l1.7,1.8l0.4,0.7v1.4l-1.3,1.1    l-1.3,1.1l-0.4,1.4l-0.4,0.7v1.4l0.4,1.7L89,181l1.3,1.8l1.7,1.4l1.3,1.4l1.7,0.7l2.1,0.7l0.4,1.1l1.7,0.7l0.9,0.7l0.9,0.7    l1.3,1.1l0.9,1.4l0.9,3.5v2.1l-0.4,2.4v1.4l0.9,0.7l1.7,1.4l0.4,1.1l0.9,0.7v1.1l0.4,1.4l0.9,0.7l0.4,0.4l0.9,0.7h1.3l1.7,1.1    l0.4,1.1l1.3,1.4l1.3,1.8l0.4,1l1.7,0.7h1.7l0.9,0.7l2.6-1.1l0.9-2.1l1.7-1.4l0.4,0.4l1.7,0.4l0.4,1.1l2.6,1l0.4,0.7l1.3,1.8    l2.1,1.4l1.3,2.5l1.3,2.1l1.7,1.4l1.3,1.8v0.7l1.7,0.4l0.9-1.1l0.9-0.7l1.3-1.8h0.9l1.7,0.4l0.4,1.8v2.1c0,0,0.1,0.6,0.5,2.6    c0.3,1.9,0.3,1.6,0.3,1.6l2.7,2.2l2.4,0.3l1.3,1.1l1,0.8l1.7,3.8v3l0.3,3.8l1,3v1.6l-0.3,3l-1,3.6v1.9l1.3,2.2l0.7,2.7l1.3,2.5    l2.7,3.6l2,1.4l2,2.2l2,2.2l0.7,2.5l0.7,4.9l1.7,2.5l-0.1,0.3l1.8,1.9l4,3.8l2.3,1.9l1.7,1.4l2-0.3l2.7-0.3l4-0.3h2.7l2,0.3    l2.7,0.5l1.7,0.3l1-0.8v-1.1l-1-1.9v-0.8l-1.7-2.2l-1.7-1.9l-2.4-3l-2.7-2.2l-2.7-3l-1-1.9L188,278l-1.3-1.6L186,275l0.7-1.9    l1.3-2.5l1-1.6v-2.7l-0.3-2.2l-1-1.6l-1.3-2.2l-1.7-1.6l-1.7-1.4v-1.1l1-2.5l2-2.2l1-2.2l-0.3-1.4l-1-1.6l-2-3l-0.3-1.4l-1.3-2.5    l-1-2.2l-0.7-6.6l0.3-3.3v-1.9l-1-1.1l-1.3-2.2l-1.3-2.8l-1.3-2.2l-0.7-3.3l-0.3-3.8v-2.2l1-1.9l1.7-2.8l0.3-1.6l0.7-1.1l0.7-1.9    l-0.3-0.6l-0.3-0.8l-1.7-2.2l-0.7-1.1l-1-0.5l0.3-0.5l1.7-0.3l1.3-1.4l3.7-0.3h7.7C191.3,190.8,197.3,190.4,198.2,190.3z"/>
		<path id="path1343" class="st3" d="M658.3,131.5l-2,0.5l-1,1.6v1.9l-2.3,0.8c-0.7,0.4-1.5,0.5-2.4,0.5h-3l-2,0.8l-1.7,2.5    l-0.7,0.8l-1.3,0.5l-2-0.8l-1.3-0.8l-2.7,0.3l-3.3,1.4l-3,1.4l-1.9,1.7c0.1,0.3,0.4,0.8,0.7,1.7c0.4,0.9,0.7,1.9,0.8,2.9    c0,0.6,0.2,1.2,0.5,1.8c0.1,0.3,0.3,0.6,0.5,1v10.4l2,5.5l0.3,1.9l2.3,1.1l0.3,1.1l2,2.5l0.7,1.1l-1,1.9l-1.7,1.6v4.9l-1.3,4.9    c0,0-1.3,2.7-1.7,3.8c-0.2,0.9-0.2,1.8-0.1,2.7c0,1,0.1,1.9,0.1,1.9v4.4l0.3,4.1l-0.7,1.4l-2.7,1.9l-2,1.6v1.9l2,1.9l1,1.4    l0.7,2.2h0.7l1,0.5v1.1l-1.3,1.1l-1.7,3v1.6l0.3,0.8l1,1.1l1.3,0.5l1.3-1.6l2-1.1l1-0.5l1.7,0.3l2,0.8l1.7,1.4l2,1.1l2,0.8l3,0.3    l2.4-1.1l2.7-0.8h4.7l2-1.9v-6.3l0.7-2.7l2-1.6l2.7-0.8l3-1.1l4.4-1.9h1.7l3.7,0.5l1,1.9l1.3,1.1l-0.3,1.4l-1.7,3.8v2.5l2,1.1    l2.3-0.3l1.7-1.4l1.3-1.9l1,0.6l2,1.9l3.4,1.4l3,2.5l1.7,2.2l3.4,0.5h3l2-1.6l1.7-3l0.7-1.6l2-0.6h2.4l3.7,1.1    c0,0,7.4,0.8,8.7,0.8c1-0.1,1.9-0.3,2.8-0.6c1-0.3,1.9-0.5,1.9-0.5l3.3-1.6l2.3-2.5l1-2.7l0.7-1.1v-2.5l-1-1.4l-1.7-2.2l-0.7-1.4    l-1.7-1.4l-2-2.2l0.3-2.2l1.7-1.6l2.3-1.9h6l2.7,0.8l2.7,2.5h4.4l1.7-1.4h3.3l4.7-3.3l1.7-3l0.7-2.2l1.3-2.8c0,0,0.5-0.5,1.1-1.4    c0.3-0.4,0.7-0.9,1-1.4c0.1-0.1,0.1-0.2,0.1-0.3l-1.6-0.5l-1.7-1.6l-1-1.9l-0.3-1.4l-1-1.9l-2.4-1.4l-2.7-0.8l-2.7-1.4l-2-0.3    l-1.3-1.9l-0.7-1.6c-0.7-0.6-1.3-1.3-1.7-2.2c-0.3-1.3-0.5-2.6-0.7-3.8l0.3-2.7v-2.2l1-1.1v-1.6l-2-1.6l-1.3-1.6h-1.7l-2.7-0.3    l-2.3,0.3l-2,1.1L733,156h-2l-1.3,1.6l-1.3,0.8l-1-1.1l-1-1.4l-0.7-2.2l-2.7-1.1h-1.7l-1.7-1.6l-1.7-1.9l-1-0.8l-2.4-2.2l-1.3-2.2    l-1.3-1.4l-2.7-2.8l-2.3-1.4l-3-0.8h-5l-2,1.4l-2,0.8l-2.7,0.3l-2.7-0.5l-2.3-2.2l-3-0.8l-2.7-1.1l-3.7,0.3l-3-0.8l-2-0.5    l-3.7-0.5l-3.3-0.6h-2l-2.3-0.3l-2-1.4L658.3,131.5z M685.1,152.9h0.7l0.3,1.4l2,1.6l0.3,3.6l0.7,3.8l0.3,2.5v3.6l2.4,1.6l4.4,1.4    h3.7l3,1.1c0.8,0.9,1.5,1.9,2,3c0.3,1.1,1.7,6,1.7,6v8.8l-1.7,2.5l-1.7,2.5l-3,1.4l-3.3,0.8h-8.4l-4.4,0.3l-1.7,0.8h-2.7l-3.3-0.8    l-1-1.1l-2-1.6l-1.3-3l-1-2.7l0.3-2.5l1.3-3.6l2-3l0.3-1.9l0.3-1.9l0.3-4.7v-1.6l1-3.3v-1.6l2-1.4l2-2.2c0,0,2-0.8,2-1.9    c0.1-1.2,0.3-2.4,0.7-3.6v-2.7l1.3-1.1L685.1,152.9z"/>
		<path id="path7401" class="st3" d="M746.6,324.4l-1.2,0.3l-0.7,0.8v1.1l-0.7,1.1h-2l-3.3,0.6l-1.3,1.1l-2.3,3.3l-2,1.6l-2,1.6    l-4,0.3l-4.4,0.5l-3.3-0.8l-0.7-0.8H717l-2-2.2l-0.3-1.4l-1-1.4l-2-1.1l-1-1.1l-6.4-0.5l-2.4,0.3l-1-1.1l-2-0.3l-2,0.3l-1.7,0.8    l-1.7,1.1l-1,0.8l-1,1.1l-1.3,0.5l-1-0.8l-0.3-0.8l-2.7-2.5l-1.7-1.1l-2.4-1.6l-1.7-1.1l-1.7-0.8l-3.3-0.3l-2.7,0.3l-2,1.6    l-1.7,1.9l-1,2.2l-2,1.9l-0.7,2.8l-1.3,1.9l-1.3,0.5l-1,0.8l-1.3-1.1l-1.7-0.8l-1-0.8l-2.7-1.4l-3.4-0.6l-1.7-0.3l-2-0.8l-1-1.1    l-1.3,1.4l-2,2.7l-2.7,1.9l-1.7,3.3l-1.7,3.8v1.9l-0.3,1.6l-1,1.1l-1.7,1.6l-1,1.9v1.6l-1,0.8l-3,0.3l-3.3,0.8    c-0.1,0.2-0.2,0.4-0.3,0.6c-0.3,0.5-0.7,0.9-1.1,1.4c-0.6,0.7-1.1,1.3-1.5,2.1c-0.5,0.7-0.8,1.2-0.8,1.2l-2,4.4v3.6l-0.3,2.7    l-0.7,2.2l-1,1.6l-1.7,0.8H613l-4.7,0.5l-2.3,1.6l-1.3,2.2l-1.3,2.5l-1.7,2.5l-0.7,1.9v2.2l1,2.5l3,2.5l2.7,2.5l0.7,1.4v0.8    l-1,1.6v2.2l0.3,2.2l1.7,1.1l2.7,1.1h4l2.3,0.8l1,2.2l-0.7,3.6v2.7l1,2.2v2.8l0.3,1.6l1.3,1.4l2,1.4l2.3,1.1l5,2.5l1.7,0.5    l3.7,0.8l4,0.5l7.7,0.6l8.1,0.3h4.4l3,0.3l2.4,0.8l0.7,1.4l1.3,1.6l1.4,1.6l1,2.2l2.7,1.6l1.3,3.3l0.7,1.6v2.8l1,1.9l2.7,2.2    l1.3,0.8l3.3,2.2l4,1.1h2.3l3-0.3l3.3-2.7l4.7-2.8l5-3l3.7-1.6l5-2.2l4.4-2.2l4-1.4l3.7-1.6l4-0.8l1-0.8h3l1,1.4l3.7,0.3l2.4-0.3    l2-1.6l2.7-1v-0.4l1-1.4l0.3-2.7v-2.7l0.7-5.5l1.7-2.5l1.7-1.1h3.7l6-0.5l5.4-0.8l2-1.1l1.3-0.5v-1.6l-0.3-2.2l1-4.1l0.3-1.4    l3.3-1.1l0.7-0.8V404l-0.7-1.6v-0.8l-1-0.8l-1-4.9l-0.3-3.8l-0.7-8.2l0.3-9v-9.6l-0.9-0.5l-1.5,0.5l-3.4-0.6l-3-1.6l-3.4-2.8    l-0.3-3.3l-0.3-3.3l1.7-1.9l1.3-1.9v-2.5l0.3-4.9v-3.6l-1.3-1.4l-2-0.5l-1.7-1.1l-0.3-1.4l0.7-1.1l0.3-1.9v-1.1l-2-1.6l-3.7-0.3    l-3-0.8l-2-1.9L746.6,324.4z"/>
		<path id="path7389" class="st4" d="M572.2,135L572.2,135l-2.4,3.9l-3,1.6l-3.4,1.4l-1,1.9l-0.7,3.6l-0.7,2.2l-4,2.7l-3.3,5.2v3.3    l1.3,2.2l3.3,2.5l3.7,0.3l4,1.6l2,1.6l3.3,2.7l2.4,2.5l0.7,1.9l-0.7,2.5l-2,0.3l-1.7-1.1l-1.7-1.1l-2.7-1.1l-2-0.8l-0.3,1.4    l0.7,1.4l0.3,2.7l-1,4.7l-1.7,2.5l-3.7,0.5h-4.4l-3,1.9l-2.7,0.6l-1.3,2.2l-2.7,3.6l-2.3,0.8l-4,3.8l-1,4.1l0.3,1.4l1.3,1.4    l0.7,1.4l-0.3,0.2v1.7l1.3,1.9l1.7,1.4h2.7l2.7,0.8v1.9l2,2.8l1.3,1.1l2.7-0.3l0.7-1.6l1,0.3v2.2l-0.3,3v5.2l1.3,4.4l2.7,6l3,6    l2,2.2l4.7,1.6l2.4,1.4l3,0.3l1.3,1.6l1,3.8l0.3,3.3v2.5l-0.7,0.8l-0.3,0.8l0.7,2.7l5.4,2.5l4,3.8l4,2.2l2.3,1.1l1.3,2.7l-0.7,2.8    v0.3l1.3,2.2l6.7,6l2.4,4.1l2.7,2.7l5.4,0.8l5,0.3l3-0.3l-0.3-1.9l-0.3-2.2l-0.7-2.5l1.3-1.1l1-1.1l0.3-1.4v-0.8l-1-1.4l-0.7-2.2    l1.7-3l3.7-3.6l1-1.1h1.7l0.7,1.1l1,1.1h1l1.3-1.4l1.3-1.6l2.7-0.3l3-1.9l1.7-2.5l0.3-4.4l-1.3-2.7l-1-3.6l-2.3-2.5l-2.3-1.1    l-4-0.8l-1-1.6l-0.7-1.9l-1.3-1.9l-0.7-3l1-2.7l2-1.9l2-2.2l2-3.6l0.3-2.8v-5.8l-1.3-0.5l-1-1.1l-0.3-0.8v-1.6l1.7-3l1.3-1.1v-1.1    l-1-0.5h-0.7l-0.7-2.2l-0.7-1l-1.6,0.8l-4-0.5l-2.7-0.8l-3-0.8l-2.7-1.4l-2-1.9l-2.7-1.4l-0.7-1.6l-1-1.4l-0.3-2.5l2.3-3.8    l1.7-2.5l3.3-2.7l4.7-4.1l3.7-3l5-0.8c0,0,0.9-0.1,2.1-0.3c0.9-0.1,2-0.2,3-0.2l0.5-2v-4.9l1.7-1.6l1-1.9l-0.7-1.1l-2-2.5    l-0.3-1.1l-2.3-1.1l-0.3-1.9l-2-5.5v-10.4c-0.2-0.3-0.4-0.6-0.5-1c-0.3-0.6-0.5-1.2-0.5-1.8c-0.2-1-0.4-2-0.8-2.9    c-0.3-0.9-0.6-1.4-0.7-1.7l-0.5,0.4l-2,1.6l-2.7,1.4l-2.7,0.3h-3.4l-2-2.5l-1.7-0.3l-1.3,0.3l-2.7,1.4l-1,1.4H602l-2.4-1.4    l-2.3-1.9L596,144l-1-1.6l-1.7-1.6l-2.3-0.5l-1.7,0.5l-2.7,1.1l-1.3,0.3l-1.7-0.8l-1.3-1.6l-1-1.1h-2.4l-1.3-1.4l-1-0.5h-2    L572.2,135z"/>
		<path id="path1309" class="st3" d="M238.4,392.2l0.3-3v-6.6l0.3-6.6l0.7-2.8l0.3-3l0.3-2.8l-1-4.1l-1-2.5v-6.6l1-2.2l1.3-0.5    l1-0.3l1.3-0.3l2-0.6l1.3-0.8l2-1.9l1.7-1.1l1-1.4l0.7-1.4v-1.4l0.3-3.3l1.3-1.9l1.3-1.1l0.3-1.4l2.4-1.6l0.3-1.6l0.7-2.2l1.7-1.9    l0.7-1.9v-3l-0.7-2.7l-1-1.6v-6.9l0.7-0.6l1.3-0.3l1.3,1.4h4l2.4-0.8l0.7-0.5l2.4-1.4l0.7-0.6l1.7-1.4l1.7-0.3l1,0.3h2l1,0.8    l0.3,0.8v0.5l1-0.8l1.3-1.4l2-1.4l0.7-1.1v-3.6l-1.4-3.6l-1-2.2l-1.7-2.2l-1-1.4v-1.9l0.3-3.3V284l-0.7-3.6l-0.7-3l-2.3-0.8    l-1.3-1.4l-2-1.1l-1.3-1.9l-3.3-2.5l-1-1.4l-0.7-2.2l0.3-2.7L267,262l-1.7-1.6l-1.7-1.6l-1-2.2l-1.7-2.5l-1-2.2l-4.4-6.6l-0.3-2.2    l-1.7-3.3l-1-3.3l-1-3.6l0.3-1.1l1.7-1.6l1-0.8l1.3-0.3l0.3-1.4l2-1.4l1-1.6l2-1.9l2.7-2.7l1-1.4v-1.4l-0.7-0.8l-1.7-0.8l-1.3-1.1    l-1.7-1.6l-2-1.1l-1-1.1v-2.2l-1-2.2l-0.3-2.2l-1.7-1.1l-2.7-1.1l-1.3-1.4l-1.7,0.3l-0.3,0.8l-1,1.9l-1.3,1.9l-0.3,1.4l-1.7-0.5    l-0.7-0.8l-1.3-1.4l-2-1.4l-0.7-1.1l-1.3-0.3l-2.7-0.8h-2l-2.7-1.1h-3l-2-0.5l-0.7-0.6l-0.3-1.6l0.3-1.9l0.3-1.1l-0.3-1.4h-1.7    l-1.7-1.1l-3-0.3l-0.7-0.5v-9.3l-1-1.4h-1.3l-1.3,0.5l-2,0.5l-2,1.4l-3.3,1.6l-1.7,1.9l-2,2.7l-1.7,0.5l-2,0.8    c0,0-7.4,0.5-9.1,0.5H182l-3.7,0.3l-1.3,1.4l-1.7,0.3l-0.3,0.5l1,0.5l0.7,1.1l1.7,2.2l0.3,0.8l0.3,0.6l-0.7,1.9l-0.7,1.1l-0.3,1.6    l-1.7,2.8l-1,1.9v2.2l0.3,3.8l0.7,3.3l1.3,2.2l1.3,2.8l1.3,2.2l1,1.1v1.9l-0.3,3.3l0.7,6.6l1,2.2l1.3,2.5l0.3,1.4l2,3l1,1.6    l0.3,1.4l-1,2.2l-2,2.2l-1,2.5v1.1l1.7,1.4l1.7,1.6l1.3,2.2l1,1.6l0.3,2.2v2.7l-1,1.6l-1.3,2.5L186,275l0.3,0.8l1.3,1.6l0.7,1.6    l1,1.9l2.7,3l2.7,2.2l2.4,3l1.7,1.9l1.7,2.2v0.8l1,1.9v1.1l-1,0.8l-1.7-0.3l-2.7-0.5l-2-0.3h-2.7l-4,0.3l-2.7,0.3l-2,0.3l-1.7-1.4    l-2.3-1.9l-4-3.8l-1.8-1.9l-0.5,1.3l-0.3,2.8v4.1l-2.4,3l-1,1.9l-2,3.3l-1.7,3.8c0,0,0.7,0.8-0.7,1.9c-0.8,0.6-1.3,1.5-1.3,2.5    l-0.7,1.9v0.5l1.3,0.8l1.3,0.3l1.3,1.9v3.3l-0.7,3.6l-2.4,3.3l-1.3,1.9l-2.7,2.7l-3.4,4.4l-3,2.5l-1.7,2.5l-0.7,3l-2.3,3.3v1.6    l0.3,3.3v0.5l0.7,1.6l1,0.8l0.7,2.2v2.5l-0.7,1.9v2.2l0.3,1.1v0.3l1.3,0.5l2,0.3l1.3-0.5l2,0.3h2l1.3,1.6l3,0.3l0.3,0.8l1.7,2.5    l2.3,0.6l2.3,0.5l3.4,1.1l2.3,0.6l0.3,1.1l0.3,0.5l0.7,1.9l2,0.8h2l2.7,0.3h5.7l3.3,0.3l3,0.5l1.7,0.5l2,1.4l1.3,0.8l2,0.5    l2.3,1.1l2,0.3h2.3l1-0.8l1-0.5l1.3-0.5h1l1,0.5l1.3,1.1l2.7,0.6l1.3,1.1l2.7,0.3l1.3,0.8l3,1.4l2.3,0.3l3,0.6l1,0.5l3,0.8    L238.4,392.2z"/>
		<path id="path1313" class="st3" d="M394.5,528v-12.3l-1-4.4l-0.7-7.7l-0.7-5.8v-6.3l0.7-1.4l2-2.2l1.3-2.2v-7.4l2.4-2.8l0.7-2.2    l0.7-3.8l0.3-5.8v-5.2l0.7-0.8l1-2.2l-0.7-1.4l-1-1.6v-7.4l0.7-5.8l0.7-2.5V435l1.7-1.4l1-0.5l1.7-0.5h2l1-0.5l0.3-1.1l1.3-2.2    v-4.9l1-0.5V416l1.3-2.8l0.7-2.2v-1.6l0.7-1.9l2.7-2.5l2.7-4.1l1.3-3l-0.3-3.8l0.3-2.5l1-2.2l1.3-1.6l1-2.2l1-2.7v-4.4l-1.7-4.1    V373c0,0-0.1-0.7-0.1-1.6c-0.1-1,0-2,0.1-3.1c0.2-1,0.2-1,0.1-0.8s-0.1,0.6-0.1,0.6l-2-4.4l-4-5.8l-3.7-6.3l-3.7-6.6l-3-3.6    l-3.3-4.1l-3.4-4.1l-1.7-2.7l-0.3-3.6l-0.3-1.9l-1.3-3.3l-1.3-1.1l-1.7-0.5v-1.4l-1.7-1.9l-0.7-0.3l-1.3,0.5l-1.3,2.2l-1.7,2.5    l-2,1.4l-1,1.1l-1.7-0.8l-1.7-1.1l-2.7-2.5l-2-2.7l-0.3-1.6v-2.2l-0.7-0.5l-2.7-2.5l-1.3-2.5l-3-1.7l-1.3-1.1l-1.7-1.1l-1.7,0.5    h-2.7l-1.7,1.4h-2.7l-1-1.6l-0.7-1.4l-1.3-2.2l-1-2.2l0.7-3.6l1.7-2.7v-3l-0.3-2.5l-0.7-1.9l-3.7-2.2l-3.4-1.9l-3.7-1.9l-3-1.4    l-3.3-2.7l-2.7-2.2l-3.4-2.7l-3-1.6l-2-0.3l-3.7-1.4l-3.7-0.8l-3.3-1.1l-1-0.8l-1-1.1l-1.7-1.9l-1.7-0.5l-3.7-1.4L302,258    l-4.7-0.8l-4-0.3l-3-1.1l-1.3-1.4l-2-1.6l-2-0.8l-2.3-0.3h-2l-2.7,1.1h-3l-5,1.4l-3.7,1.4l-3,1.1l-0.3,0.4l0.9,2.1l1.7,1.6    l1.7,1.6l0.3,1.4l-0.3,2.7l0.7,2.2l1,1.4l3.3,2.5l1.3,1.9l2,1.1l1.3,1.4l2.3,0.8l0.7,3l0.7,3.6v2.2l-0.3,3.3v1.9l1,1.4l1.7,2.2    l1,2.2l1.3,3.6v3.6l-0.7,1.1l-2,1.4l-1.3,1.4l-1,0.8V309l-0.3-0.8l-1-0.8h-2l-1-0.3l-1.7,0.3l-1.7,1.4l-0.7,0.6l-2.4,1.4l-0.7,0.5    l-2.4,0.8h-4l-1.3-1.4l-1.3,0.3l-0.7,0.6v6.9l1,1.6l0.7,2.7v3l-0.7,1.9l-1.7,1.9l-0.7,2.2l-0.3,1.6L255,335l-0.3,1.4l-1.3,1.1    l-1.3,1.9l-0.3,3.3v1.4l-0.7,1.4l-1,1.4l-1.7,1.1l-2,1.9l-1.3,0.8l-2,0.6l-1.3,0.3l-1,0.3l-1.3,0.5l-1,2.2v6.6l1,2.5l1,4.1    l-0.3,2.8l-0.3,3L239,376l-0.3,6.6v6.6l-0.3,3h1.3l3,0.8l1.3,1.6l2.4,1.1l2.7,0.8l2,2.2l1.7,1.4l2.3,1.1l2.7,2.8l2.7,2.2l1.3,1.4    l2.3,1.9l1.3,1.6l1,1.4l2,1.9l2,1.9l1.3,1.6l2.3,1.9l1.3,1.6l0.7,1.1l2.3,2.8l1.7,0.8l1.7,1.4l1.3,1.1l1.3,1.6l1.3,2.2l1.7,0.3    l1.7,0.3l2.7,1.1l1.3,0.8l2.3,1.6l2,0.6l2.3,0.5h2.7l2.4,0.5l1.7-0.3l1,0.6l0.3,0.5l1,0.5v1.4l-0.3,1.4v2.5l-1,1.6l-0.3,2.2v1.9    l1.7,1.4l1.3,1.1l3.3,1.6l1.3,1.9l1,3.3l1,2.2l0.3,1.6l0.7,2.2v7.4l0.7,2.2v2.2l0.7,1.9l1,1.6l0.3,2.2l1.7,0.3l0.3,2.2l0.7,1.1    l1.3,1.9l0.7,0.3v3l-1.3,1.1v0.8l1.7,1.4l1.7,2.2l2,1.9l1.7,1.9l1.7,1.6l1.3,1.1l1.3,1.6l1,0.8v2.2l0.3,1.1l1,1.4l1.7,2.5l1.7,1.6    l2.7,0.3l5.4,1.9h4l5.4,0.5l5,0.8h2.7l4.4,1.4l4.7,1.1l1.7,0.8c0,0,1.3,1.9,2.7,1.9c0.9,0,1.8,0.2,2.7,0.5l2.3,0.6l2.7,1.1h2.3    l3.4,0.8L394.5,528z"/>
		<path id="path1318" class="st3" d="M396.9,321.4l1.3-1.1l1.3-2.2l1.3-2.2l2-2.5l1.3-3.6v-8l1.3-3.6l3.3-3.8l2-2.5l3.3-1.6l3-1.6    l2.7-1.4l2-1.9l0.3-1.9v-6.3l2-1.4l1.7-0.8l0.3-2.7v-1.6l2-1.4l1-1.4l1.3-1.4v-1.4l-0.7-3.6l-0.7-3.8v-2.5l1.7-4.1l3-1.6l4-1.1    h2.3l2.7-0.8l1-1.6l2.3-1.6l3.4-1.4l2.3-2.5l0.3-1.9l0.3-3.6l-0.7-2.5l-1.7-1.4v-3l1.3-3l0.7-1.6v-1.6l1-1.6l0.7-1.9l1-1.9l-1-2.2    v-2.8l-1.7-2.7l-0.3-0.5l1-1.4l0.7-1.4v-1.6l1.7-0.6v-1.4l-1-0.8l-1.3-1.4l-1,0.3l-2.3,1.1l-3,0.6l-3,0.8l-3.7,2.2l-2,2.5h-2.4    l-1.3-1.4l-1.3-1.1h-2.7l-3.3-0.8l-1.7-0.3h-2.7l-3.3,0.8h-3l-3.3-1.4l-2-3.3l-2-3.3l-3.7-2.8l-4-1.1l-3.4-0.5l-4.4-0.3l-3.3-1.1    l-3-3l-2-3l-2.4-2.8v-1.9l0.3-3.8l3-4.1l3.7-3.8l2-1.9v-2.8l0.8-4.5l-0.4-1.3l-0.7-1.9l-0.7-2.7l-2.3-0.6l-3-0.8    c-0.7-0.2-1.3-0.3-2-0.3c-1.3,0-4-0.3-4-0.3h-1.7L375,150l-0.3-1.4l-1-0.8H372l-0.3,0.8l-0.7,1.6l-1.3,0.6l-1-0.8l-1.3-0.3    l-2.7-1.9l-0.7-1.1l-0.7-1.1l-2-0.8l-2.4-1.1h-1.7l-1.7-1.1l-1.3-0.3l-1,0.3l-2.4,0.3l-1.7,1.4l-1,0.5l-1.7,0.5l-0.3,1.4h-1.3    l-1.7,1.4H342l-0.4,0.8l-1,3.3l-0.7,2.7v3.3l-2,1.6v2.5l-1.3,2.2v1.1l0.7,1.6l1.3,0.5l0.3,1.9l1.3,3l0.7,1.6l1.3,2.5l0.7,1.4v1.4    l1.3,0.6l0.7,1.6v1.4l-1.7,1.6l-0.3,0.8l-1.7,1.1l-1.3,2.2l-0.3,0.8l-1.3,2.7v4.9l-1,1.9l-0.3,1.6v3l-1.7,0.3l-3.3,0.3l-1.7,0.5    l-1.3,0.5l-1.7,0.8l-1.7,1.1c-0.1,0.2-0.2,0.4-0.3,0.6c-0.1,0.2-0.3,0.3-0.5,0.4c-0.3,0.1-0.5,0.2-0.8,0.2h-1.7l-2,1.4    c-0.2,0.1-0.3,0.2-0.5,0.3c-0.5,0.2-1,0.3-1.5,0.3c-0.3,0-0.6,0-0.8,0.1c-0.2,0.1-0.4,0.2-0.5,0.3s-0.3,0.3-0.3,0.4l-1.3,0.5    l-1.7-0.5l-1.3-1.1l-1.7-1.1l-2-1.9l-1.3-1.1l-1.7-0.5l-3.3-0.3l-1.7-0.5L297,204l-1-1.4l-1.7-0.3l-3.7,0.8l-2,0.8l-2,1.1    l-1.7,1.6l-1,0.5h-1l-0.7-0.5l-0.3-0.6l-2-0.5h-3.4l-1.3,1.9v1.9l-1,2.5l-2,1.6l-2,0.6l-2.3,2.2l-2.7,1.5v1.2l-1,1.4l-2.7,2.7    l-2,1.9l-1,1.6l-2,1.4l-0.3,1.4l-1.3,0.3l-1,0.8l-1.7,1.6l-0.3,1.1l1,3.6l1,3.3l1.7,3.3l0.3,2.2l4.4,6.6l1,2.2l1.7,2.5v0.1    l0.3-0.4l3-1.1l3.7-1.4l5-1.4h3l2.7-1.1h2l2.3,0.3l2,0.8l2,1.6l1.3,1.4l3,1.1l4,0.3l4.7,0.8l3.7,0.3l3.7,1.4l1.7,0.5l1.7,1.9    l1,1.1l1,0.8l3.3,1.1l3.7,0.8l3.7,1.4l2,0.3l3,1.6l3.4,2.7l2.7,2.2l3.3,2.7l3,1.4l3.7,1.9l3.4,1.9l3.7,2.2l0.7,1.9l0.3,2.5v3    l-1.7,2.7l-0.7,3.6l1,2.2l1.3,2.2l0.7,1.4l1,1.6h2.7l1.7-1.4h2.7l1.7-0.5l1.7,1.1l1.3,1.1l3,1.6l1.3,2.5l2.7,2.5l0.7,0.5v2.2    l0.3,1.6l2,2.7l2.7,2.5l1.7,1.1l1.7,0.8l1-1.1l2-1.4l1.7-2.5l1.3-2.2l1.3-0.5l0.7,0.3l1.7,1.9v1.4l1.7,0.5L396.9,321.4    L396.9,321.4z"/>
		<path id="path1333" class="st3" d="M634.6,186.2c-1,0-2.1,0.1-3,0.2c-1.2,0.1-2.1,0.3-2.1,0.3l-5,0.8l-3.7,3l-4.7,4.1l-3.3,2.7    l-1.7,2.5l-2.3,3.8l0.3,2.5l1,1.4l0.7,1.6l2.7,1.4l2,1.9l2.7,1.4l3,0.8l2.7,0.8l4,0.5l1.6-0.8l-0.3-0.4l-2-1.9v-1.9l2-1.6l2.7-1.9    l0.7-1.4l-0.3-4.1v-4.4c0,0-0.1-0.9-0.1-1.9c-0.1-0.9,0-1.8,0.1-2.7c0.3-1.1,1.7-3.8,1.7-3.8L634.6,186.2z"/>
		<path id="path1338" class="st3" d="M430.7,265.7h4l3.7,0.8c0.2,0.2,0.4,0.3,0.7,0.4c0.2,0.1,0.5,0.2,0.7,0.3    c0.3,0.1,0.6,0.1,0.9,0.1c0.2,0,0.5,0.1,0.7,0.3c0.1,0.2,0.2,0.4,0.2,0.6c0,0.3-0.1,0.6-0.2,0.8l-1,1.6l1,2.2l0.7,2.7l3,1.1    l2.7,1.9l4.7,0.5h5.4l3.7-1.9l3-1.4l4.4-1.9l1.7-0.8l2.3,0.8l1,2.5v5.5l0.3,3.3l1.3,2.5l1.3,2.5v12.6l2,0.5l2.4-1.6l2-0.8l3.4-1.4    l1-0.3l2.3,0.3l1.7,0.5c-0.1,0-0.1,0.1-0.1,0.2c0.1,0.1,0.1,0.3,0.3,0.3c0.3,0.2,0.6,0.4,0.9,0.5c0.4,0.2,0.7,0.5,1,0.8    c0.2,0.3,0.5,0.6,0.6,1c0.2,0.4,0.3,0.8,0.4,1.2l-1,2.2l1.7,2.5l2,0.5l1.3,0.8l1.3,1.6l0.7,1.9l4,0.8l2.3,1.1l1.7-1.6l1.7,0.8h5.4    c0.4,0,0.8,0.1,1.2,0.2c0.5,0.1,1,0.2,1.4,0.4c0.9,0.3,1.7,0.5,1.7,0.5l1.7,2.2l1,1.9l2.7,0.5h6.4l2-1.1h1.3l2,0.8h1.7l2.3-0.5    v-1.6l1-3.3l2-0.5l1-0.8l2-0.8l0.3,0.3l1.3,1.4h2.7l2.4-1.1h4.4l1.7,1.1l1,1.4l0.3,1.9h0.7l1-1.4l2-1.6v-3.3l1.3-2.8l2.7-2.7    l2-3.6v-3.3l-0.3-1.6l-1.3-2.2l-1-1.6l-1-2.2l1.3-1.4l1.7-0.3h1.3l1.7,1.9l2.7,1.9l2.4,0.8l2.3,0.8l1.7,0.8l2,1.1l0.3,0.8    l-0.3,2.5l1,1.9l4.4,1.6h6l5.7-1.1c0,0,0.8-0.8,1.8-1.8c0.5-0.5,0.9-1,1.3-1.5c0.3-0.4,0.6-0.8,0.9-1.3l0.1-0.2l-0.4-0.1l-2.7-2.7    l-2.4-4.1l-6.7-6l-1.3-2.2v-0.3l0.7-2.8l-1.3-2.7l-2.3-1.1l-4-2.2l-4-3.8l-5.4-2.5l-0.7-2.7l0.3-0.8l0.7-0.8v-2.5L576,257l-1-3.8    l-1.3-1.6l-3-0.3l-2.4-1.4l-4.7-1.6l-2-2.2l-3-6l-2.7-6l-1.3-4.4v-5.2l0.3-3v-2.2l-1-0.3l-0.7,1.6l-2.7,0.3l-1.3-1.1l-2-2.8v-1.9    l-2.7-0.8h-2.7L540,213l-1.3-1.9v-1.7l-1,0.6l-2,1.4l-2.3,1.4l-2.3,0.8l-3-1.1l-2-1.9l-1.7-1.9l-0.3-1.9l-4.4-2.8l-3.3-0.3    l-2.7-1.4l-3.3-2.5H508l-2.3,1.6l-3,1.1l-3.7,4.4l1,1.1l2,1.4l2,0.5l0.7,1.9l-2.3,1.1l-2,0.3l-1.7,1.6l-1.3,3l-1.7,2.8l-2.7,3.3    l0.3,1.9l1,2.2l1,1.6l0.3,1.6l-0.3,2.2l-4,0.3l-2.7,0.8l-1.3,2.2v2.5l-1.7,1.4l-1.7-1.1l-1.3-1.6l-3-3l-1.7-1.4l-3.4,0.5l-1.7,1.9    v1.6l-0.3,2.5l-0.3,1.6l-2.3,1.6l-2,1.1h-2.3l-2,1.4h-2.7l-0.7-0.8l-3.7-1.4l-2-1.1l-2.7-0.3l-0.7-0.5l-1,1.1l-3.4,1.4l-2.3,1.6    l-1,1.6l-2.7,0.8h-2.3l-4,1.1l-3,1.6l-1.7,4.1v2.5l0.7,3.8l0.7,3.6L430.7,265.7z"/>
		<path id="path1627" class="st3" d="M865.1,341.6l2.7,0.9l3.7,0.5l4.4,1.4l1.7,1.9l1.7,1.4l0.7,1.4l0.3,2.2l0.3,1.9l1.3,0.8    l-0.3,0.8l1,2.2l0.3,1.9l2,3.6v3.8l-0.3,5.5v2.2l1,0.6l1,1.1l2.4,2.5l1.7,2.2l0.3,1.6l1.7,1.9l1.7,3l2,4.1l0.7,3.6l0.3,3l0.8,3.5    l0.9-0.8l2.4-1.9l3.3-1.4l3.3-1.4l4.7-0.3l3,0.3l3,1.4l2,1.4l3,2.5l1.7,1.6l2,2.7l2,0.8l2.3,1.6l2.3,1.1l6,0.3l4.4,0.5l3.3,0.3    l4-0.3l2-0.3l3-0.5l3-0.8l3.3-0.3l2.3-2.2l1.3-1.4l2.3-0.8l2.7-2.2l1.3-2.2l2-0.8l1-1.4l1.7-1.9l1-0.5l0.7-1.9l0.7-3l1.3-2.5    l0.7-1.4l2-1.6l1.3-0.3l3-2.2l1.3-0.3l0.7-1.4V376l-0.3-1.6l-0.3-1.9l-1.3-1.4v-1.6l0.3-1.1l2-0.6l2.3-1.6l0.3-0.6l1.3,0.3    l0.3,0.5l2,1.9h11.7l4-1.1l2-0.3l4.7-0.6l2.3-1.9l2.7-0.5c1-0.5,2-0.8,3-1.1c1-0.3,2.1-0.6,3-1.1l1.7-2.2l2.7-0.8l1.3-3.6l1.7-0.6    l1-0.5l0.7-1.6l1.7-2.2l2.3-1.6l2-1.1l2-1.6l1.7-1.4l0.7-0.8v-1.6l-0.3-0.8l-1.7-1.1V336l1-2.7l1.3-2.2l0.3-2.7l0.7-3v-2.8    l1.3-2.2l2.3-1.9l0.7-1.5l-1.7-0.4l-3.7-1.9l-3-2.7l-2.7-3l-2.3-4.1l-1.3-2.5l-1-2.5l-2.7-1.4h-3l-6,0.8l-5.4,0.5l-2.7,1.1    l-2.3,2.5l-0.7,2.5l-5,1.1h-10.1l-5.7,1.4l-1.7,2.2l-2,1.6l-3.4-0.6l-0.7-1.4l-1.7-1.6c0,0-0.3-0.4-0.5-1    c-0.3-0.6-0.6-1.2-0.8-1.8c-0.1-0.3-0.2-0.6-0.4-0.8c-0.2-0.2-0.4-0.5-0.6-0.7c-0.2-0.2-0.5-0.5-0.7-0.7V300l-3-1.1l-3-1.4l-3-1.4    l-2.3-3.3l-0.3-3l0.3-3.3v-4.1l-1-4.1l-1.3-1.4l-2-0.3h-3l-3.3-1.6l-1.7-1.4l-1.3-1.9l-3-0.3l-2.4-2.2l-3.7-1.4l-2-2.5l-3.7-1.1    l-4-0.3l-6-0.6l-4.4-0.8l-3.4-1.4h-3.3l-3,0.8l-2.4,2.2l-3.3,0.6l-2.3-0.6l-0.7-1.9v-2.5l-0.3-4.9v-1c-1.1,0.4-2.7,0.9-3,1    c-0.6,0.2-1.2,0.4-1.8,0.8c-0.5,0.3-1.1,0.7-1.5,1.2c-0.3,0.3-0.7,0.4-1,0.6c-0.3,0.1-0.6,0.1-1,0.1c-0.3,0-0.7,0-1-0.1l-3.7,1.9    l-3.7,2.7c-0.3,0.1-0.5,0.2-0.8,0.3c-0.3,0.1-0.5,0.3-0.8,0.4c-0.3,0.2-0.6,0.4-0.8,0.7c-0.2,0.3-0.4,0.6-0.5,0.9s-0.1,0.7-0.1,1    c0,0.4,0.1,0.7,0.2,1.1v4.1l1.3,2.2l0.7,2.7v2.5l-1.7,1.1l-2-0.3l-2-0.8l-2.3-0.3l-3.3,0.8l-2.4,1.1l-3.3,4.4l-2,2.5l-1.7,4.9    l-0.3,3v4.7c0,0.4,0,0.7-0.1,1.1c-0.1,0.3-0.2,0.5-0.3,0.8c-0.1,0.2-0.3,0.4-0.5,0.6v4.4l-2.4,6.6l-2,4.7v3.8l1.3,3l0.3,1.6l2,1.9    l1.3,3.3l-1.7,3.3l-1.7,3.3l-2.7,2.5L865.1,341.6z"/>
		<path id="path1632" class="st3" d="M788.8,336.1l-0.8,0.7l-1.7,1.1l-1.3,3l-1.3,2.5l-0.3,3.6l-0.7,3l-0.7,3.6l-0.7,0.8l-2.7,1.4    l-2.7,1.6l-2.7,1.4l-1.7,1.4l-0.3,0.8l-0.7,1.6l-0.7,1.1l0.3,0.6l1.3,0.8v9.6l-0.3,9l0.7,8.2l0.3,3.8l1,4.9l1,0.8v0.8l0.7,1.6v1.1    l-0.7,0.8l-3.3,1.1l-0.3,1.4l-1,4.1l0.3,2.2v1.6l-1.3,0.5l-2,1.1l-5.4,0.8l-6,0.5h-3.7l-1.7,1.1l-1.7,2.5l-0.7,5.5v2.7l-0.3,2.7    l-1,1.4v2.7l-1.3,3.8v3l0.7,3.8l1.7,5.8l2,3l1.7,3l0.7,3v4.1l0.3,1.6l1,1.6l1.7,4.7l1,1.9l0.3,3.3l0.7,8.2v3.6l0.7,2.8l1.3,3l1,3    l1.7,1.9l1.3,1.1l0.7,1.1l-0.3,2.5l-1,9.1v11l-1,1.9v1.1l0.3,2.2l0.7,3.3l0.7,1.6l0.3,1.6v1.1l-0.7,1.6l-0.3,3.3v3h1.3l2.7-0.3    l2.7-1.6l1.3-0.8l4.4-1.1h2.7l4,0.3l2,0.8l3,0.5l2.7,0.3l3.3,0.5l3,0.8h2l3,0.8l2-0.6l1-1.6l2-1.6h4.7l2,0.3l2,0.6h2l2-1.4l2-2.2    h2.4l2-1.9l1.7-1.4l3-2.2l0.7-1.6l1.7-1.4l2-0.8c0.3-0.6,1-0.9,1.7-0.8c0.9,0,1.8-0.2,2.7-0.5l2-0.5h2.4l1.7-0.5l2.7-0.8l1-1.9    l2-2.2h1.3l2-0.3l2-0.6l0.7-1.4l1-2.2l1-1.4c0.9-0.3,1.8-0.7,2.7-1.1l1-1.4l1.7-0.3v-1.9l1-1.6l0.3-2.5v-3l1.3-1.6l1.3-1.1    l0.7-0.5l0.7-1.6v-1.1l1.3-1.6l1.3-1.9l1-0.3l0.7-1.6l1.7-2.8l2.3-1.9l1.7-2.2l2-0.8l1.7-0.3l1-0.8l2.7-0.8h2.4l1.7-0.5l2-1.1    l1.3-1.1l3-1.1l2-0.8l1.3-1.4l1-0.5l0.7-1.6v-0.5l1.7-1.6l1.3-0.8l2.3-0.8l1.7-2.5v-3.8l-0.7-3.3l-0.7-3.6l-0.3-1.9l-2.7-2.8    l-1-1.4l-2.7-1.9h-0.3l-3-1.1l-1.7-1.4l-1.7-2.7l-2.4-3.3l-2-2.5l-1.3-1.9l-2-0.5l-0.7-0.8l-0.3-1.1l-0.3-1.6v-1.4l0.3-2.5v-2.2    l1.3-1.9l0.7-1.6l1-1.6l0.3-2.7l0.3-1.6l1-2.5l1-2.8v-1.4l1.3-1.9l1.7-2.8l0.3-1.4V407l1.7-2.5l2-2.7l0.8-0.6l-0.8-3.5l-0.3-3    l-0.7-3.6l-2-4.1l-1.7-3l-1.7-1.9l-0.3-1.6l-1.7-2.2l-2.4-2.5l-1-1.1l-1-0.6v-2.2l0.3-5.5v-3.8l-2-3.6l-0.3-1.9l-1-2.2l0.3-0.8    l-1.3-0.8l-0.3-1.9l-0.3-2.2l-0.7-1.4l-1.7-1.4l-1.7-1.9l-4.4-1.4l-3.7-0.5l-2.7-0.9l-1.7,2l-3.7,4.9c0,0-0.9,0.3-2,0.5    c-1,0.3-2,0.5-3,0.5c-1.2-0.1-2.4-0.2-3.5-0.4c-1.3-0.2-2.5-0.4-2.5-0.4l-1-0.8l-4-0.8l-2-3l-2-4.1l-1.3-2.5l-1.3-2.5l-2.3-2.2    l-2-3.8l-3-3.6l-1.3-1.4l-3-0.5l-2.7,0.3l-1.7,1.1c-0.1,0.2-0.2,0.5-0.3,0.7c-0.5,1-0.5,2.1,0,3c0.1,0.2,0.2,0.5,0.3,0.7l0.7,2.7    l1,2.5v2.2l-1.3,3l-1.3,3l-2,2.7l-4,3.6h-11.4c-0.6,0-1.1,0-1.7-0.1c-0.5-0.1-0.9-0.2-1.4-0.3c-0.4-0.1-0.9-0.2-1.3-0.4    c-0.5-0.1-1.1-0.2-1.6-0.4c-0.4-0.2-0.8-0.4-1.2-0.6s-0.7-0.5-0.9-0.9c-0.7-1.4-0.7-1.4-0.7-1.4l-2.7-3.6l-0.3-2.2l-1-1.4    l-0.7-1.6L788.8,336.1z"/>
		<path id="path1637" class="st3" d="M788.7,312.6l-1.3,0.8l-1.3,1.4l-1,1.1l-0.3,0.6L783,317l-1-0.8l-0.3-1.4l0.3-2.2l-0.7-1.1    l-0.7-1.4h-1.3l-0.7,1.6l-0.7,1.1l-4,3.8l-1,1.4l-2,0.6l-2,1.4h-2.7l-2-0.6l-3.3-1.4l-4,0.3l-3-0.5l-5,0.5l-2,2.2l-0.7,2.7l1,2.2    l2,1.9l3,0.8l3.7,0.3l2,1.6v1.1l-0.3,1.9l-0.7,1.1l0.3,1.4l1.7,1.1l2,0.5l1.3,1.4v3.6l-0.3,4.9v2.5l-1.3,1.9l-1.7,1.9l0.3,3.3    l0.3,3.3l3.4,2.8l3,1.6l3.4,0.6l1.5-0.5l-0.5-0.3l-0.3-0.6l0.7-1.1l0.7-1.6l0.3-0.8l1.7-1.4l2.7-1.4l2.7-1.6l2.7-1.4l0.7-0.8    l0.7-3.6l0.7-3l0.3-3.6l1.3-2.5l1.3-3l1.7-1.1l0.8-0.7l-1.8-1l-1.7-1.4l-0.3-1.9v-6.3l0.3-3.3l1.3-2.2l1.3-3.6v-1.9L788.7,312.6z"/>
		<path id="path1661" class="st3" d="M610.7,405.4l-2.7,3l-1.7,1.9l-1.7,2.5l-2.7,1.6l-2.7,1.9l-2.4,1.1l-2.7,1.9l-2.7,1.4l-2,2.2    l-1.7,4.4l-1.3,2.5L584,432l-2,3.3l-1,3.6v2.8l-0.7,2.7l-1,0.8l-2.3,1.9l-2,1.9v1.4l0.7,1.6l1.3,1.6l0.7,0.8l1,0.8v1.4l-0.3,1.6    l-1.7,0.8l-2.3-0.5l-2-0.3l-1.3-0.5h-2l-6.4,0.3h-5l-10.4,1.1l-5,1.4l-4.4,1.1l-3.7,1.9l-4.4,1.1l-2.7,1.9l-2.7,0.8l-2.4,2.2    l-1,0.5l-1.7,1.6l-18.4,0.5L484,472l-2-1.1h-1.7l-1.7-1.1v-1.1l-0.3-2.2l-2.3-2.2l-2.7-4.1l-1.3-1.4l-1.7-2.2l-1.7-0.8h-2.4    l-5.7-0.3h-3.4l-2,1.4l-2.7,0.3l-1.7,0.6v1.1l1,0.8l0.3,2.5l1,2.7v16.5l0.3,18.9l0.3,9.6l1,8.8v5.5l0.7,7.1v7.1h0.3l3.7-0.8    l2.7-0.8l2.3-0.8l2.4-0.8h2.3l2,1.1l2,0.5l1.3,1.1l2,0.5l2,0.8l1.7-0.5l0.7-1.6l1.3-1.9l1-0.8h4.7l2.7,0.3l2.4,1.4l1.7,0.3    l1.3,0.8l1.7,0.5l2.4,0.8h2l2.3,0.3l0.7,1.4l1.3,0.5l1.7,0.3l0.3-0.8l1-0.8l1-0.8l1.3-0.3l1,0.6l1.7,0.8l2.7,0.8l2,0.8l3.7,0.6    l2.7,0.8l2,1.6l1.7,0.3l2.4,0.8l2,1.1l3,2.8l1.7,2.2l1.3,1.4l2.3,1.9l1,1.6l1.7,2.2l1.7,0.5l2.7,1.6l2,0.5l0.7,1.4l0.3,1.9h2.7    l3.3,0.8c1,0.2,2,0.2,3,0.3h10.1l3.7,1.1l3.3,1.6l2,0.8l1.7,1.6l2.7,1.1l1,1.9h2.3l3,1.1h2.3l2.4,0.8l1.7,1.6l1,0.8l1.7,1.6    l1.3,0.8l3.7,1.1l4,0.3l5,0.5h3c1.8-0.2,3.7-0.7,5.4-1.4l2.3-1.9l2.7-0.6l2.4-0.5h5l1.7,1.4v8.2l1.7,1.4l2.4,0.3l3,0.3h2.4    l2.3,1.4l3,0.3l1.3,1.1l1,0.8l3,0.3l1.3-2.7l0.7-1.1l2-2.2l1.7-1.4l3-0.5l1.3-1.4l2.7-0.8l2.3-0.5l2-1.1l2.7-0.8l3.3-1.4l2-2.2    l2.7-1.6l1-2.2l1.3-2.2l2.4-1.6l1.7-0.8l3-0.3l1-1.9l3.4-0.3l0.3,0.8l0.3,0.8v1.1h1.7l1.3-1.1l0.3-1.4l2-1.4l1.3-2.2l1-3l1.7-1.1    l2-2.5l2-0.3h2.7l3,0.8l2.3-0.3l3.3-0.8l4.7-0.8l4-0.5l3.7-0.8l2.4-0.8l0.7-2.5l1.7-1.9l1-2.2l3-0.3l2-1.1h2l1,0.5l1.7,0.8    l0.7,0.6l1.3,1.6h1.7l2.7,0.3h4v-3l0.3-3.3l0.7-1.6v-1.1l-0.3-1.6l-0.7-1.6l-0.7-3.3l-0.3-2.2v-1.1l1-1.9v-11l1-9.1l0.3-2.5    l-0.7-1.1l-1.3-1.1l-1.7-1.9l-1-3l-1.3-3l-0.7-2.8V489l-0.7-8.2l-0.3-3.3l-1-1.9l-1.7-4.7l-1-1.6l-0.3-1.6v-4.1l-0.7-3l-1.7-3    l-2-3l-1.7-5.8l-0.7-3.8v-3l1.3-3.8v-2.4l-2.7,1l-2,1.6l-2.4,0.3l-3.7-0.3l-1-1.4h-3l-1,0.8l-4,0.8l-3.7,1.6l-4,1.4l-4.4,2.2    l-5,2.2l-3.7,1.6l-5,3l-4.7,2.8l-3.3,2.7l-3,0.3h-2.3l-4-1.1l-3.3-2.2l-1.3-0.8l-2.7-2.2l-1-1.9v-2.8l-0.7-1.6l-1.3-3.3l-2.7-1.6    l-1-2.2l-1.3-1.6l-1.3-1.6l-0.7-1.4l-2.4-0.8l-3-0.3H656l-8.1-0.3l-7.7-0.6l-4-0.5l-3.7-0.8l-1.7-0.5l-5-2.5l-2.3-1.1l-2-1.4    l-1.3-1.4l-0.3-1.6v-2.7l-1-2.2v-2.7l0.7-3.6l-1-2.2l-2.3-0.8h-4L610.7,405.4z"/>
		<path id="path1666" class="st3" d="M525.9,320.6l0.3,0.8l1,1.9l2,1.1l1.3,1.1l1,1.4l-0.3,1.4l-1,1.9v0.8l0.7,1.6l1,0.5l0.3,1.4    v1.6l-0.7,1.6l-2,1.4l-0.3,2.5l0.3,3.6l-0.7,3l-2,1.4l-2.7,3l-1.3,3l-1,3.8v3.3l0.7,4.7l0.3,1.1l0.7,1.9v2.5l-1.7,3.6l-0.3,1.9    l-1.7,2.8l-1.3,2.7l-1.7,1.6l-1.7,2.5l-1,0.8l0.7,1.6l1.3,1.6l0.3,1.1l0.7,2.2v0.8l-1,2.2l-0.7,3v3.8l0.7,3.8l1.7,1.6l1.3,1.1    l1.3,0.8l2.7,1.9l2,1.4l1.3,0.6l2,1.6l0.3,0.8v5.5l0.7,2.5l0.7,2.5l0.7,1.4l1,2.5v1.6l0.7,1.9l1,1.6l0.7,1.9l-0.7,6v3.3l-0.3,3.6    l0.3,7.7v2.6l0.7-0.2l3.7-1.9l4.4-1.1l5-1.4l10.4-1.1h5l6.4-0.3h2l1.3,0.5l2,0.3l2.3,0.5l1.7-0.8l0.3-1.6v-1.4l-1-0.8l-0.7-0.8    l-1.3-1.6L575,450v-1l2-1.9l2.3-1.9l1-0.8l0.7-2.7v-2.8l1-3.6l2-3.3l2.4-2.2l1.3-2.5l1.7-4.4l2-2.2l2.7-1.4l2.7-1.9l2.4-1.1    l2.7-1.9l2.7-1.6l1.7-2.5l1.7-1.9l2.7-3l-1.4-0.6l-1.7-1.1l-0.3-2.2v-2.2l1-1.6v-0.8l-0.7-1.4L605,393l-3-2.5l-1-2.5v-2.2l0.7-1.9    l1.7-2.5l1.3-2.5l1.3-2.2l2.3-1.6l4.7-0.5h3.7l1.7-0.8l1-1.6l0.7-2.2l0.3-2.7v-3.6l2-4.4c0,0,0.3-0.5,0.8-1.2s1-1.4,1.5-2.1    c0.4-0.4,0.7-0.9,1.1-1.4c0.1-0.2,0.2-0.4,0.3-0.6l3.3-0.8l3-0.3l1-0.8v-1.6l1-1.9l1.7-1.6l1-1.1l0.3-1.6v-1.9l0.5-1.1l-0.4-0.3    l-2.1-1.4l-1.9-1.6l-1.9-1.2l-2.4-1.6l-1.2-2.1V332l-0.9-2.3v-2.1l-0.9-1.6l-1.2-0.8l-0.7-1l-1.2-1.7l-1.2-2.7l-0.2-1.7l0.5-1.2    l0.7-1.4l1.7-3.5l1.4-2.1v-1.6l-0.2-1.6l-1.4-1.6l-0.9-1l-1.4-1.6l-1.4-1.7l-1.2-1.7l-0.7-0.9l0.1,0.3l-3,0.3l-5-0.3l-4.9-0.8    l-0.1,0.2c-0.3,0.5-0.6,0.9-0.9,1.3c-0.4,0.5-0.9,1-1.3,1.5c-0.9,1-1.8,1.8-1.8,1.8l-5.7,1.1h-6l-4.4-1.6l-1-1.9l0.3-2.5l-0.3-0.8    l-2-1.1l-1.7-0.8l-2.3-0.8l-2.4-0.8l-2.7-1.9l-1.7-1.9h-1.3l-1.7,0.3l-1.3,1.4l1,2.2l1,1.6l1.3,2.2l0.3,1.6v3.3l-2,3.6l-2.7,2.7    l-1.3,2.8v3.3l-2,1.6l-1,1.4h-0.7l-0.3-1.9l-1-1.4l-1.7-1.1h-4.4l-2.4,1.1H549l-1.3-1.4l-0.3-0.3l-2,0.8l-1,0.8l-2,0.5l-1,3.3v1.6    l-2.3,0.5h-1.7l-2-0.8h-1.3l-2,1.1L525.9,320.6L525.9,320.6z"/>
		<path id="path1656" class="st3" d="M430.7,265.7v0.8l-1.3,1.4l-1,1.4l-2,1.4v1.6L426,275l-1.7,0.8l-2,1.4v6.3l-0.3,1.9l-2,1.9    l-2.7,1.4l-3,1.6l-3.3,1.6l-2,2.5l-3.3,3.8l-1.3,3.6v8l-1.3,3.6l-2,2.5l-1.3,2.2l-1.3,2.2l-1.3,1.1l1.3,3.3l0.3,1.9l0.3,3.6    l1.7,2.7l3.4,4.1l3.3,4.1l3,3.6l3.7,6.6l3.7,6.3l4,5.8l2,4.4c0,0,0.1-0.4,0.1-0.6s0-0.1-0.1,0.8c-0.1,1-0.2,2-0.1,3.1    c0,0.9,0.1,1.6,0.1,1.6v1.4l1.7,4.1v4.4l-1,2.7l-1,2.2l-1.3,1.6l-1,2.2l-0.3,2.5l0.3,3.8l-1.3,3l-2.7,4.1l-2.7,2.5l-0.7,1.9v1.6    L413,413l-1.3,2.8v7.4l-1,0.5v4.9l-1.3,2.2l-0.3,1.1l-1,0.5h-2l-1.7,0.5l-1,0.5l-1.7,1.4v1.9l-0.7,2.5l-0.7,5.8v7.4l1,1.6l0.7,1.4    l-1,2.2l-0.7,0.8v5.2l-0.3,5.8l-0.7,3.8l-0.7,2.2l-2.4,2.8v7.4l-1.3,2.2l-2,2.2l-0.7,1.4v6.3l0.7,5.8l0.7,7.7l1,4.4V528l0.7,0.3    l3.4,0.8l2,1.1l3.4,1.9h2.7l2,1.4l2.3,0.3l3.7,0.6l4.4,0.8l3,0.3l2.3,0.8l1.7,1.1l2,1.1l3.7,0.3l2.3,0.5l1.7,0.3l3,0.5h7l3.3-0.5    l2.7-1.1h3.7v-7.1l-0.7-7.1v-5.5l-1-8.8l-0.3-9.6l-0.3-18.9V465l-1-2.7l-0.3-2.5l-1-0.8v-1.1l1.7-0.6l2.7-0.3l2-1.4h3.4l5.7,0.3    h2.4l1.7,0.8l1.7,2.2l1.3,1.4l2.7,4.1l2.3,2.2l0.3,2.2v1.1l1.7,1.1h1.7l2,1.1l17.1,0.3l18.4-0.5l1.7-1.6l1-0.5l2.4-2.2l2.7-0.8    l2.7-1.9l3.7-0.9v-2.6l-0.3-7.7l0.3-3.6v-3.3l0.7-6l-0.7-1.9l-1-1.6l-0.7-1.9v-1.6l-1-2.5l-0.7-1.4l-0.7-2.5l-0.7-2.5v-5.5    l-0.3-0.8l-2-1.6l-1.3-0.6l-2-1.4l-2.7-1.9l-1.3-0.8l-1.3-1.1l-1.7-1.6l-0.7-3.8V402l0.7-3l1-2.2V396l-0.7-2.2l-0.3-1.1l-1.3-1.6    l-0.7-1.6l1-0.8l1.7-2.5l1.7-1.6l1.3-2.7l1.7-2.8l0.3-1.9l1.7-3.6v-2.5l-0.7-1.9l-0.3-1.1l-0.7-4.7v-3.3l1-3.8l1.3-3l2.7-3l2-1.4    l0.7-3l-0.3-3.6l0.3-2.5l2-1.4l0.7-1.6v-1.6l-0.3-1.4l-1-0.5l-0.7-1.6v-0.8l1-1.9l0.3-1.4l-1-1.4l-1.3-1.1l-2-1.1l-1-1.9l-0.3-0.8    H526l-2.7-0.5l-1-1.9l-1.7-2.2c0,0-0.8-0.3-1.7-0.5c-0.5-0.1-1-0.3-1.4-0.4s-0.8-0.2-1.2-0.2h-5.4l-1.7-0.8l-1.7,1.6l-2.3-1.1    l-4-0.8l-0.7-1.9l-1.3-1.6l-1.3-0.8l-2-0.5l-1.7-2.5l1-2.2c-0.1-0.4-0.2-0.8-0.4-1.2c-0.2-0.4-0.4-0.7-0.6-1    c-0.3-0.3-0.6-0.6-1-0.8c-0.3-0.1-0.6-0.3-0.9-0.5c-0.1-0.1-0.2-0.2-0.3-0.3c0-0.1,0-0.2,0.1-0.2l-1.7-0.5l-2.3-0.3l-1,0.3    l-3.4,1.4l-2,0.8l-2.4,1.6l-2-0.5v-12.6l-1.3-2.5l-1.3-2.5l-0.3-3.3v-5.5l-1-2.5l-2.3-0.8l-1.7,0.8l-4.4,1.9l-3,1.4l-3.7,1.9h-5.4    l-4.7-0.5l-2.7-1.9l-3-1.1l-0.7-2.7l-1-2.2l1-1.6c0.1-0.3,0.2-0.5,0.2-0.8c0-0.2,0-0.4-0.2-0.6s-0.4-0.3-0.7-0.3    c-0.3,0-0.6,0-0.9-0.1s-0.5-0.2-0.7-0.3c-0.2-0.1-0.5-0.3-0.7-0.4l-3.7-0.8L430.7,265.7z"/>
		<path id="path1353" class="st3" d="M766.1,186.2l-0.6,6l-0.3,3.6l0.3,2.5l0.7,3l2,1.1l2,1.1l2,2.5l2.7,4.1l1.7,5.8l1.3,5.2    l0.3,4.4l1.7,3.3l1.7,3.6l1,5.8v3l-2,1.6l-0.3,3.8v1.1l1,2.5l1.3,2.2l-2,2.5l-3,2.5l-2.7,1.1l-3.3,0.3l-4.3,0.7v4.9v1.3l-0.8,3.4    l-2.4,5.8l1.2,2.8l-0.6,3v3l2.3,1.6l2,1.4l1.7,1.6l1.3,3l1.3,1.6l1.7,1.9l0.7,3l0.3,1.9l2,2.7l2.3,3l3.7,3l2.7,1.1l1,1.6l1,0.5    v1.1l-0.7,1.9v1.9l-1.3,3.6l-1.3,2.2l-0.3,3.3v6.3l0.3,1.9l1.7,1.4l2,1.1l0.7,1.6l1,1.4l0.3,2.2l2.7,3.6c0,0,0,0,0.7,1.4    c0.2,0.4,0.5,0.7,0.9,0.9c0.4,0.2,0.8,0.4,1.2,0.6c0.5,0.2,1.1,0.3,1.6,0.4c0.4,0.2,0.9,0.3,1.3,0.4c0.5,0.1,0.9,0.2,1.4,0.3    c0.6,0.1,1.1,0.1,1.7,0.1H814l4-3.6l2-2.7l1.3-3l1.3-3v-2.2l-1-2.5l-0.7-2.7c-0.1-0.2-0.2-0.5-0.3-0.7c-0.5-1-0.5-2.1,0-3    c0.1-0.2,0.2-0.5,0.3-0.7l1.7-1.1l2.7-0.3l3,0.5l1.3,1.4l3,3.6l2,3.8l2.3,2.2l1.3,2.5l1.3,2.5l2,4.1l2,3l4,0.8l1,0.8    c0,0,1.2,0.2,2.5,0.4c1.2,0.2,2.3,0.3,3.5,0.4c1-0.1,2-0.3,3-0.5c1.1-0.3,2-0.5,2-0.5l3.7-4.9l3-3.6l2.7-2.5l1.7-3.3l1.7-3.3    l-1.3-3.3l-2-1.9l-0.3-1.6l-1.3-3v-3.8l2-4.7l2.4-6.6v-4.4c0.2-0.2,0.4-0.4,0.5-0.6s0.3-0.5,0.3-0.8c0.1-0.4,0.2-0.7,0.1-1.1v-4.7    l0.3-3l1.7-4.9l2-2.5l3.3-4.4l2.4-1.1l3.3-0.8l2.3,0.3l2,0.8l2,0.3l1.7-1.1v-2.5L893,273l-1.3-2.2v-4.1c-0.1-0.4-0.2-0.7-0.2-1.1    c0-0.3,0-0.7,0.1-1c0.1-0.4,0.2-0.7,0.5-0.9c0.2-0.3,0.5-0.5,0.8-0.7c0.2-0.2,0.5-0.3,0.8-0.4s0.5-0.2,0.8-0.3l3.7-2.7l3.7-1.9    c0.3,0.1,0.7,0.1,1,0.1s0.7,0,1-0.1c0.4-0.1,0.7-0.3,1-0.6c0.5-0.4,1-0.8,1.5-1.2c0.6-0.3,1.2-0.6,1.8-0.8c0.3-0.1,2-0.7,3-1v-1.2    l-3.7-2.5l-2-2.5l-2.3-2.8l-1.3-3.3l-1.7-5.2l-1-1.9l-0.3-1.6l1-1.6l1-1.9V223l-1-1.9l-1.7-1.4l-1.3-1.4l-2.7-1.6l-4.4-5.5    l-2.3-4.4l-1.7-3l0.3-2.2l0.7-0.8l0.3-1.1l-0.7-2.5l-0.7-1.9l-1-2.5L884,190l-1-3l-0.3-3.6v-1.6l-1-2.7l-1.9-2.9l-0.8,0.4h-6    l-2.7,1.6l-1.7,1.6l-3.7,1.1l-2-0.8h-2l-2.4,0.8l-2,1.1l-2,0.8l-1.7,1.1l-1.3,2.8l-1.7,1.9l-2.7,0.5L843,190l-1.3,0.8l-2,1.1    l-1.3-1.1l-1.3-1.6h-2.7l-0.7-1.4l-1-1.1h-2.3l-1.7,0.5l-0.3,1.1l-0.7,1.4l-1.7,0.5l-2,0.8l-3.3,1.4l-1.3,0.3l-2.7-0.8l-2-1.6    l-2-0.5l-1.3-0.3l-2.7-1.4l-2,0.5l-1.7,0.3l-2.3,0.8l-1.7-0.8l-2.4-1.1l-1.7-1.4l-4.7-0.8l-5.4-0.8h-6l-3,0.3l-4.7,1.1l-2.7,0.5    h-2.7L766.1,186.2z"/>
		<path id="path1323" class="st3" d="M880,176.1l1.9,2.9l1,2.7v1.6l0.3,3.6l1,3l0.7,2.8l1,2.5l0.7,1.9l0.7,2.5l-0.3,1.1l-0.7,0.8    l-0.3,2.2l1.7,3l2.3,4.4l4.4,5.5l2.7,1.6l1.3,1.4l1.7,1.4l1,1.9v6.6l-1,1.9l-1,1.6l0.3,1.6l1,1.9l1.7,5.2l1.3,3.3l2.3,2.8l2,2.5    l3.7,2.5v2.2l0.3,4.9v2.5l0.7,1.9l2.3,0.6l3.3-0.6l2.4-2.2l3-0.8h3.3l3.4,1.4l4.4,0.8l6,0.6l4,0.3l3.7,1.1l2,2.5l3.7,1.4l2.4,2.2    l3,0.3l1.3,1.9l1.7,1.4l3.3,1.6h3l2,0.3l1.3,1.4l1,4.1v4.1l-0.3,3.3l0.3,3l2.3,3.3l3,1.4l3,1.4l3,1.1v3.6c0.3,0.2,0.5,0.4,0.7,0.7    c0.2,0.2,0.4,0.5,0.6,0.7c0.2,0.2,0.3,0.5,0.4,0.8c0.2,0.6,0.5,1.2,0.8,1.8c0.3,0.5,0.5,1,0.5,1l1.7,1.6l0.7,1.4l3.4,0.6l2-1.6    l1.7-2.2l5.7-1.4h10.1l5-1.1l0.7-2.5l2.3-2.5l2.7-1.1l5.4-0.5l6-0.8h3l2.7,1.4l1,2.5l1.3,2.5l2.3,4.1l2.7,3l3,2.7l3.7,1.9l1.7,0.4    l0.3-0.7l0.7-1.4l1.7-2.2l1.3-1.6l1.7-1.1l2.7-1.9l2-0.3l3.3,1.1l2.4,0.3l5,1.4l1.3-0.8l1.7-1.9l0.3-1.9l1-3.8l0.7-1.9l1-2.5    l0.3-1.9l0.7-1.9l0.7-1.9l0.3-1.1h3.4l0.7,0.3l1,0.8l2,1.1v1.6l1,0.3l2-0.8l1.7-1.1l2.7-1.9l2.4-3.3l3.7-2.2l1-2.8l2.4-1.1l3-0.5    h4l2-1.9l2.7-1.9l3.7-0.3l2.3-0.5l1.3-0.8l0.7-1.6l0.3-1.4v-1.1l0.7-1.9l1.7,0.3v1.4l0.7,1.1l1.3,1.1l1,1.6l1.7,1.1l1,1.1v1.1    l2.7,1.1l2.7,0.5h5.7c1.7-0.2,3.4-0.4,5-0.8h3.7l3-1.1l2.4-2.5l2.7-0.3l0.7-1.1l0.7-2.7v-2.2l-2.3-3v-2.2l-0.3-3.6l-2.3-3.3    l-1.3-1.4l-2-2.5l-2-2.7l-2.4-2.5l-2.7-1.6l-2.3-1.9l-2-1.1l-3.3-1.9l-1.7-1.9l-2-1.1l-2.7-2.7l-2-1.1l-2.3-1.9l-2.4-1.4l-2.7-2.2    l-0.7-1.6l-2.3-1.9l-2.4-0.8l-4.4-1.9l-3-0.3l-2.3-1.1l-2-2.5l-1.3-2.2l-0.7-1.9l-3-1.6l-1-0.6h-2.3l-2.7,0.8l-2,0.6h-2.4    l-0.3-0.3l-1-1.1l-1.7-0.3h-2.7l-1.7,0.3l-3,2.5c-0.7,0.2-1.3,0.4-2,0.5c-1.3,0.3-2.3,0.6-2.3,0.6l-2,2.2l-0.7,2.7l-1,3.3    l-0.7,2.2l-1.7,3l-0.3,1.9l-1.7,2.7l-2,1.1l-1,0.3l-2-0.8l-1-1.9l-1.7-1.1l-1,0.3l-1.7-0.5l-1-0.6l-1.7-1.1    c-0.3-0.7-0.9-1.1-1.7-1.1c-1.3,0-5.7-0.5-5.7-0.5h-4l-3.3,1.4l-2.7,2.5l-3.7,0.8l-1.3,0.8h-2.3l-0.7-0.6l-2.4-0.8l-2.3,0.5    l-3,0.8l-2.7,3l-0.3,1.9l-0.7,2.5h-2.7l-1.7-0.8l-0.7-0.3c0,0-0.3-0.8-2.4-1.9c-1.1-0.5-2-1.4-2.7-2.5l-1.7-1.4l-1.3-1.9l-1.3-2.2    l-1.7-2.2l-1-2.2v-2.5l1-3l3-2.2l2.3-1.6l1.7-1.1l1-1.4l0.7-3.3l-0.7-1.6l-1-0.8l-1.7-2.5v-3l-0.3-4.4l2.7-2.2l1.7-1.4l1-1.1    l1-3.3v-4.1l-1.7-1.9V183l1.3-2.5v-2.7l1.7-3l1.3-3.3l1-3.6l0.7-2.5l2-5.8l1.7-4.9v-3l1.3-4.7l1-2.8v-1.9l1-4.1l0.7-1.9l0.7-1.6    v-3l-1.7-1.9l-1-1.4l-1.7-0.8V125l-2.3-1.1l-1.7-0.3l-4.7,0.3h-3l-4,1.4l-3.7,1.6l-2,1.9l-3,0.8l-1,1.6l-2.7,1.9l-2.4-0.5    l-2.3-0.8l-2.7-0.5l-3.4-0.3l-2.7-1.4l-2.7-1.6l-3-1.9l-2.7-1.4l-2-1.4l-2-1.4l-3.3-1.1h-13.4l-6,0.8l-3.7,2.2l-1.3,1.9l-2,2.2    l-4,3.3l-1.7,1.4c-1.3,1.1-4,3-4,3l-1.3,1.6l-2.4,2.7l-2,0.8l-2,1.9l-0.7,1.6l-3,1.1l-2.7,2.2l-1,2.2l-1,2.7l-0.3,2.2v3.6l-1,3    l-1.7,1.1l-2.3,1.1l-3.7,1.9l-3.7,1.6h-4.7l-4,0.5l-3.7,0.6l-3.3,1.4l-3,1.9l-2.7,3.3L880,176.1z"/>
		<path id="path1305" class="st5" d="M260.1,89.3"/>
		<path id="path1345" class="st3" d="M675.4,177.4l0.3-4.7v-1.6l1-3.3v-1.6l2-1.4l2-2.2c0,0,2-0.8,2-1.9c0.1-1.2,0.3-2.4,0.7-3.6    v-2.7l1.3-1.1l0.3-0.3h0.7l0.3,1.4l2,1.6l0.3,3.6l0.7,3.8l0.3,2.5v3.6l2.3,1.6l4.4,1.4h3.7l3,1.1c0.8,0.9,1.5,1.9,2,3    c0.3,1.1,1.7,6,1.7,6v8.8l-1.7,2.5l-1.7,2.5l-3,1.4l-3.4,0.8h-8.4l-4.4,0.3l-1.7,0.8h-2.7l-3.4-0.8l-1-1.1l-2-1.6l-1.3-3l-1-2.7    l0.3-2.5l1.3-3.6l2-3l0.3-1.9L675.4,177.4z"/>
		<path id="path7417" class="st5" d="M260.1,89.3"/>
		<path id="path1319" class="st3" d="M265.1,217.9l2.7-1.5l2.3-2.2l2-0.6l2-1.6l1-2.5v-1.9l1.3-1.9h3.4l2,0.5l0.3,0.6l0.7,0.5h1    l1-0.5l1.7-1.6l2-1.1l2-0.8l3.7-0.8l1.7,0.3l1,1.4l3.3,0.8l1.7,0.5l3.3,0.3l1.7,0.5l1.3,1.1l2,1.9l1.7,1.1l1.3,1.1l1.7,0.5    l1.3-0.5c0.1-0.2,0.2-0.3,0.3-0.4c0.1-0.1,0.3-0.2,0.5-0.3c0.3-0.1,0.5-0.1,0.8-0.1c0.5,0,1-0.1,1.5-0.3c0.2-0.1,0.3-0.2,0.5-0.3    l2-1.4h1.7c0.3,0,0.6-0.1,0.8-0.2c0.2-0.1,0.4-0.2,0.5-0.4s0.3-0.4,0.3-0.6l1.7-1.1l1.7-0.8l1.3-0.5l1.7-0.5l3.3-0.3l1.7-0.3v-3    l0.3-1.6l1-1.9v-4.9l1.3-2.7l0.3-0.8l1.3-2.2l1.7-1.1l0.3-0.8l1.7-1.6V182l-0.7-1.6l-1.3-0.6v-1.4l-0.7-1.4l-1.3-2.5l-0.7-1.6    l-1.3-3l-0.3-1.9l-1.3-0.5l-0.7-1.6v-1.1l1.3-2.2v-2.5l2-1.6v-3.3l0.7-2.7l1-3.3l0.4-0.8h-0.4l-1-1.1l-1.7-1.4l-0.3-0.3l-2-1.1    l-1.3-1.1l-1.3-0.3l-2.4-0.8h-2.3l-1.7,0.3l-1.7-1.1l-0.3-1.1l-1.7-1.6l-3-2.2l-3,0.3h-2l-2-0.8l-1.3-1.4l-1.3-3l-0.7-2.7    l-1.7-1.6l-1-1.4v-1.4l0.3-1.6l1-2.2l0.7-2.5l1-2.7V114l0.7-1.1l-0.7-1.4l-1-0.8l-3-0.6l-2-0.8l-2-0.8l-2.7-1.1l-3-1.1h-9.4    c-1.3,0-2.5-0.3-3.7-0.8c-0.8-0.3-1.5-0.5-2.3-0.5l-1.3-1.4l-2.7-1.6l-1.7,0.5l0.3,1.1v2.8l-2.4,0.5l-2.7,0.3l-1.7-0.6l-3-1.6    l-2-0.6l-0.3-1.9l0.3-3l0.7-1.4l1.3-2.5l0.3-1.6l-2-0.8l-1-1.4l-1.7-0.3l-1-1.1H259l-0.7,2.8l-0.3,1.4l-1.3,1.6l-1-0.5l-0.7-1.6    l-1.7-1.9l-1-0.3l-1.3-1.4l-1.7-1.1v-1.6l-1.7-1.4l-0.3-1.1l-2,0.3L244,86l-1.3,1.6v3l0.3,1.9l-2.4,1.4l-1-0.8l-1.3-0.5l-2.4-0.8    l-4-0.6l-3.3,0.3l-2.7,1.1l-3.4,3.3l-1,0.8l-2,1.4h-1.3l-3.3,0.8l-1.3,1.4h-3l-2.7,1.4l-3.7,0.6l-4.4,0.3l-3.4-0.5l-2.3,0.8    l-1.3,1.9l-0.7,1.9l-0.3,1.6l-1.7,0.6l-1-1.4l-2-1.1l-2-0.8l-1.7-0.3l-1.7-1.4l-1.7,0.6l-1.7,2.5l-1,1.6l-2,2.5l-1.3,1.6l-1.3,0.6    l-1.7-1.6l-1.7-0.5l-1.7-1.1l-1.7,0.5v3.3l-0.3,1.1h-0.1l0.4,0.3l1.7,1.9v1.6l0.3,1.1l1.3,1.4v2.5l-0.3,3.3v3.3l0.7,2.5v2.2    l0.3,2.2l0.3,1.9l2.7,1.6l0.3,1.4l3,2.7l1.3,1.4l1,1.1l2,1.4l0.3,1.6l0.7,2.2l1.7,2.2l0.7,2.5l1.7,3.3v2.5l0.7,1.4l1,1.9l1,3.8    l0.7,2.7l2,2.5l1,0.8l2.7,0.3l0.7,0.8l1,1.1v4.4l0.7,2.8l1,1.6l0.1,3.3h0.6l2-0.8l1.7-0.5l2-2.7l1.7-1.9l3.3-1.6l2-1.4l2-0.5    l1.3-0.5h1.3l1,1.4v9.3l0.7,0.5l3,0.3l1.7,1.1h1.7l0.3,1.4l-0.3,1.1l-0.3,1.9l0.3,1.6l0.7,0.6l2,0.5h3l2.7,1.1h2l2.7,0.8l1.3,0.3    l0.7,1.1l2,1.4l1.3,1.4l0.7,0.8l1.7,0.5l0.3-1.4l1.3-1.9l1-1.9l0.3-0.8l1.7-0.3l1.3,1.4l2.7,1.1l1.7,1.1l0.3,2.2l1,2.2v2.2l1,1.1    l2,1.1l1.7,1.6l1.3,1.1l1.7,0.8l0.7,0.8L265.1,217.9z"/>
		<path id="path19291" class="st5" d="M691.8,239.1l2,3.6l-1,3l1.3,4.7l2.7,4.4l-1.3,3.3l2.7,3.3l1.3-2.2l2.7,1.6l6,0.5l2.3-1.9    l3.4,0.5h3l5.4,4.7h7.7l-0.3-1.9l1.7-1.1l-0.3-1.9l-0.3-2.7l1.7-2.5V252l-1-1.1l-1.3-0.3l-1-0.3l-1-0.3h-1.3l-1,0.5l-1.3-0.5    l-2.7-3.6l-2-2.5l-1.3-0.5l-1-0.5l-1.7-1.9l-1.3,0.8l-2-1.4l-2.7,1.4h-2l-3.4-1.1l-3.4-0.3h-2l-3-1.4l-1.3-0.3L691.8,239.1z"/>
		<path id="path19293" class="st5" d="M764.2,258.3l-4,3.6l-2,4.9l2,6.6l3.7,1.1l1.3-2.6l1.4-3.1l0.7-3.3v-6L764.2,258.3z"/>
	</g>
</g>
<g>
	<g id="Ellipse_70_00000173123589726804248560000011333154339457637544_" transform="matrix(1, 0, 0, 1, 5.413, 4.165)">
		<ellipse class="st6" cx="104.7" cy="559.2" rx="6.9" ry="6.9"/>
		<ellipse class="st7" cx="104.7" cy="559.2" rx="6.4" ry="6.4"/>
	</g>
	<path id="ic_location_on_24px_00000103242503367522921070000014633545057066025883_" class="st8" d="M109.5,552.4   c-6.4,0-11.6,5.2-11.6,11.5l0,0c0,8.6,11.6,21.5,11.6,21.5s11.6-12.8,11.6-21.5C121.1,557.6,115.9,552.4,109.5,552.4L109.5,552.4z    M109.5,568.1c-2.3,0-4.2-1.8-4.2-4.2c0-2.3,1.8-4.2,4.2-4.2c2.3,0,4.2,1.8,4.2,4.2C113.6,566.3,111.8,568.1,109.5,568.1z"/>
</g>
<g>
	<g id="Ellipse_70_00000080202840006180552890000008773786189368759712_" transform="matrix(1, 0, 0, 1, 5.413, 4.165)">
		<ellipse class="st6" cx="104.7" cy="516.7" rx="6.9" ry="6.9"/>
		<ellipse class="st7" cx="104.7" cy="516.7" rx="6.4" ry="6.4"/>
	</g>
	<path id="ic_location_on_24px_00000094578376182405033850000006558324960714147462_" class="st9" d="M109.5,509.9   c-6.4,0-11.6,5.2-11.6,11.5l0,0c0,8.6,11.6,21.5,11.6,21.5s11.6-12.8,11.6-21.5C121.2,515.1,115.9,509.9,109.5,509.9L109.5,509.9z    M109.5,525.7c-2.3,0-4.2-1.8-4.2-4.2c0-2.3,1.8-4.2,4.2-4.2s4.2,1.8,4.2,4.2S111.9,525.7,109.5,525.7z"/>
</g>
<text transform="matrix(0.713 -0.7012 0.7012 0.713 647.1998 307.6049)" class="st10 st11"> </text>
<text transform="matrix(0.7099 -0.7043 0.7043 0.7099 649.3016 305.5384)" class="st12 st13 st11"> </text>
<text transform="matrix(0.7068 -0.7074 0.7074 0.7068 651.3782 303.4772)" class="st12 st13 st11"> </text>
<text transform="matrix(0.7038 -0.7104 0.7104 0.7038 653.4488 301.4055)" class="st12 st13 st11"> </text>
<text transform="matrix(0.7007 -0.7134 0.7134 0.7007 655.5082 299.324)" class="st12 st13 st14"> </text>
<text transform="matrix(0.6977 -0.7164 0.7164 0.6977 657.5581 297.2389)" class="st12 st13 st11"> </text>
<text transform="matrix(0.6946 -0.7194 0.7194 0.6946 659.6015 295.1415)" class="st12 st13 st11"> </text>
<text transform="matrix(0.6916 -0.7223 0.7223 0.6916 661.6342 293.036)" class="st12 st13 st11"> </text>
<text transform="matrix(0.655 -0.7556 0.7556 0.655 684.9734 267.5301)" class="st12 st13 st11"> </text>
<text transform="matrix(0.57 -0.8217 0.8217 0.57 728.5101 211.8532)" class="st12 st13 st15"> </text>
<text transform="matrix(0.5351 -0.8448 0.8448 0.5351 742.3279 191.1379)" class="st10 st11"> </text>
<g>
	<circle class="st0" cx="935.3" cy="547" r="14"/>
	<circle class="st1" cx="935.3" cy="514" r="14"/>
	<circle class="st2" cx="935.3" cy="580" r="14"/>
	<g>
		<g class="st16">
			<path class="st9" d="M966.5,515.5c0.3,0.4,0.5,0.9,0.5,1.6c0,0.9-0.3,1.5-1,2c-0.7,0.5-1.6,0.7-2.9,0.7h-4.9v-9.8h4.6     c1.2,0,2.1,0.2,2.7,0.7c0.6,0.5,0.9,1.1,0.9,1.9c0,0.5-0.1,0.9-0.3,1.3c-0.2,0.4-0.5,0.7-0.9,0.9     C965.8,514.8,966.2,515.1,966.5,515.5z M960.1,511.3v2.7h2.6c0.6,0,1.1-0.1,1.5-0.3c0.3-0.2,0.5-0.6,0.5-1c0-0.4-0.2-0.8-0.5-1     c-0.3-0.2-0.8-0.3-1.5-0.3H960.1z M965.2,516.9c0-0.9-0.7-1.4-2.1-1.4h-3v2.8h3C964.4,518.3,965.2,517.8,965.2,516.9z"/>
			<path class="st9" d="M974.2,512.9c0.6,0.5,0.9,1.3,0.9,2.4v4.4h-1.7v-0.9c-0.2,0.3-0.5,0.6-0.9,0.8c-0.4,0.2-0.9,0.3-1.4,0.3     c-0.6,0-1.1-0.1-1.5-0.3c-0.4-0.2-0.7-0.5-1-0.8c-0.2-0.3-0.3-0.7-0.3-1.2c0-0.7,0.3-1.2,0.8-1.6c0.5-0.4,1.3-0.6,2.4-0.6h1.9     v-0.1c0-0.5-0.2-0.9-0.5-1.2c-0.3-0.3-0.8-0.4-1.4-0.4c-0.4,0-0.8,0.1-1.2,0.2c-0.4,0.1-0.8,0.3-1,0.5l-0.7-1.3     c0.4-0.3,0.9-0.5,1.4-0.7s1.1-0.2,1.8-0.2C972.8,512.1,973.6,512.4,974.2,512.9z M972.6,518.2c0.3-0.2,0.6-0.5,0.7-0.9v-0.9h-1.8     c-1,0-1.5,0.3-1.5,1c0,0.3,0.1,0.6,0.4,0.8s0.6,0.3,1.1,0.3C971.9,518.5,972.2,518.4,972.6,518.2z"/>
			<path class="st9" d="M984.2,512.2l-3.5,8.1c-0.3,0.8-0.7,1.4-1.2,1.7c-0.5,0.3-1,0.5-1.7,0.5c-0.4,0-0.7-0.1-1.1-0.2     c-0.4-0.1-0.7-0.3-0.9-0.5l0.7-1.3c0.2,0.2,0.4,0.3,0.6,0.4c0.2,0.1,0.5,0.1,0.7,0.1c0.3,0,0.6-0.1,0.8-0.2     c0.2-0.2,0.4-0.4,0.6-0.8l0.1-0.3l-3.3-7.5h1.8l2.4,5.6l2.4-5.6H984.2z"/>
			<path class="st9" d="M990.5,512.9c0.6,0.5,0.9,1.3,0.9,2.4v4.4h-1.7v-0.9c-0.2,0.3-0.5,0.6-0.9,0.8c-0.4,0.2-0.9,0.3-1.4,0.3     c-0.6,0-1.1-0.1-1.5-0.3c-0.4-0.2-0.7-0.5-1-0.8c-0.2-0.3-0.3-0.7-0.3-1.2c0-0.7,0.3-1.2,0.8-1.6c0.5-0.4,1.3-0.6,2.4-0.6h1.9     v-0.1c0-0.5-0.2-0.9-0.5-1.2c-0.3-0.3-0.8-0.4-1.4-0.4c-0.4,0-0.8,0.1-1.2,0.2c-0.4,0.1-0.8,0.3-1,0.5l-0.7-1.3     c0.4-0.3,0.9-0.5,1.4-0.7s1.1-0.2,1.8-0.2C989,512.1,989.9,512.4,990.5,512.9z M988.9,518.2c0.3-0.2,0.6-0.5,0.7-0.9v-0.9h-1.8     c-1,0-1.5,0.3-1.5,1c0,0.3,0.1,0.6,0.4,0.8s0.6,0.3,1.1,0.3C988.1,518.5,988.5,518.4,988.9,518.2z"/>
			<path class="st9" d="M1000.1,513c0.6,0.6,0.9,1.4,0.9,2.5v4.3h-1.8v-4.1c0-0.7-0.2-1.2-0.5-1.5c-0.3-0.3-0.8-0.5-1.3-0.5     c-0.6,0-1.2,0.2-1.5,0.6c-0.4,0.4-0.6,0.9-0.6,1.7v3.8h-1.8v-7.5h1.7v1c0.3-0.3,0.7-0.6,1.1-0.8c0.4-0.2,0.9-0.3,1.5-0.3     C998.8,512.1,999.6,512.4,1000.1,513z"/>
			<path class="st9" d="M1006.3,516.5l-1.3,1.2v2h-1.8v-10.4h1.8v6.3l3.6-3.4h2.1l-3.1,3.1l3.4,4.4h-2.1L1006.3,516.5z"/>
			<path class="st9" d="M1018.7,513c0.6,0.6,0.9,1.4,0.9,2.5v4.3h-1.8v-4.1c0-0.7-0.2-1.2-0.5-1.5c-0.3-0.3-0.8-0.5-1.3-0.5     c-0.6,0-1.2,0.2-1.5,0.6c-0.4,0.4-0.6,0.9-0.6,1.7v3.8h-1.8v-10.4h1.8v3.8c0.3-0.3,0.6-0.5,1.1-0.7c0.4-0.2,0.9-0.2,1.4-0.2     C1017.4,512.1,1018.1,512.4,1018.7,513z"/>
			<path class="st9" d="M1023.2,519.3c-0.6-0.3-1.1-0.8-1.4-1.4c-0.3-0.6-0.5-1.2-0.5-2s0.2-1.4,0.5-2s0.8-1,1.4-1.4     s1.3-0.5,2.1-0.5c0.8,0,1.5,0.2,2.1,0.5c0.6,0.3,1.1,0.8,1.4,1.4c0.3,0.6,0.5,1.2,0.5,2s-0.2,1.4-0.5,2c-0.3,0.6-0.8,1-1.4,1.4     c-0.6,0.3-1.3,0.5-2.1,0.5C1024.5,519.8,1023.8,519.6,1023.2,519.3z M1026.8,517.7c0.4-0.4,0.6-1,0.6-1.7c0-0.7-0.2-1.3-0.6-1.7     c-0.4-0.4-1-0.6-1.6-0.6s-1.2,0.2-1.6,0.6c-0.4,0.4-0.6,1-0.6,1.7c0,0.7,0.2,1.3,0.6,1.7c0.4,0.4,0.9,0.6,1.6,0.6     S1026.4,518.1,1026.8,517.7z"/>
			<path class="st9" d="M1037.5,513c0.6,0.6,0.9,1.4,0.9,2.5v4.3h-1.8v-4.1c0-0.7-0.2-1.2-0.5-1.5c-0.3-0.3-0.8-0.5-1.3-0.5     c-0.6,0-1.2,0.2-1.5,0.6c-0.4,0.4-0.6,0.9-0.6,1.7v3.8h-1.8v-7.5h1.7v1c0.3-0.3,0.7-0.6,1.1-0.8c0.4-0.2,0.9-0.3,1.5-0.3     C1036.1,512.1,1036.9,512.4,1037.5,513z"/>
			<path class="st9" d="M1048.1,512.2v6.4c0,2.6-1.3,4-4,4c-0.7,0-1.4-0.1-2.1-0.3c-0.6-0.2-1.2-0.4-1.6-0.8l0.8-1.3     c0.3,0.3,0.7,0.5,1.2,0.7c0.5,0.2,1,0.2,1.5,0.2c0.8,0,1.4-0.2,1.8-0.6c0.4-0.4,0.6-0.9,0.6-1.7v-0.4c-0.3,0.3-0.7,0.6-1.1,0.7     c-0.4,0.2-0.9,0.3-1.4,0.3c-0.7,0-1.4-0.2-1.9-0.5s-1-0.7-1.4-1.3c-0.3-0.6-0.5-1.2-0.5-1.9c0-0.7,0.2-1.3,0.5-1.9     c0.3-0.5,0.8-1,1.4-1.3s1.2-0.5,1.9-0.5c0.5,0,1,0.1,1.5,0.3c0.4,0.2,0.8,0.4,1.1,0.8v-1H1048.1z M1045.7,517.3     c0.4-0.4,0.6-0.9,0.6-1.6c0-0.6-0.2-1.1-0.6-1.5c-0.4-0.4-1-0.6-1.6-0.6c-0.7,0-1.2,0.2-1.7,0.6c-0.4,0.4-0.6,0.9-0.6,1.5     c0,0.6,0.2,1.2,0.6,1.6c0.4,0.4,1,0.6,1.7,0.6C1044.7,517.9,1045.3,517.7,1045.7,517.3z"/>
			<path class="st9" d="M1051.7,519.3c-0.6-0.3-1.1-0.8-1.4-1.4c-0.3-0.6-0.5-1.2-0.5-2s0.2-1.4,0.5-2c0.3-0.6,0.8-1,1.4-1.4     c0.6-0.3,1.3-0.5,2.1-0.5c0.8,0,1.5,0.2,2.1,0.5s1.1,0.8,1.4,1.4s0.5,1.2,0.5,2s-0.2,1.4-0.5,2c-0.3,0.6-0.8,1-1.4,1.4     s-1.3,0.5-2.1,0.5C1053,519.8,1052.3,519.6,1051.7,519.3z M1055.4,517.7c0.4-0.4,0.6-1,0.6-1.7c0-0.7-0.2-1.3-0.6-1.7     c-0.4-0.4-1-0.6-1.6-0.6s-1.2,0.2-1.6,0.6c-0.4,0.4-0.6,1-0.6,1.7c0,0.7,0.2,1.3,0.6,1.7c0.4,0.4,0.9,0.6,1.6,0.6     S1054.9,518.1,1055.4,517.7z"/>
			<path class="st9" d="M1063.8,512.1v1.7c-0.1,0-0.3,0-0.4,0c-0.7,0-1.2,0.2-1.6,0.6c-0.4,0.4-0.6,1-0.6,1.7v3.6h-1.8v-7.5h1.7v1.1     C1061.6,512.5,1062.5,512.1,1063.8,512.1z"/>
			<path class="st9" d="M1071.3,519.2c-0.8-0.4-1.4-1-1.9-1.8c-0.5-0.8-0.7-1.6-0.7-2.6s0.2-1.8,0.7-2.6c0.5-0.8,1.1-1.4,1.9-1.8     c0.8-0.4,1.7-0.7,2.7-0.7s1.9,0.2,2.7,0.7c0.8,0.4,1.4,1,1.9,1.8c0.5,0.8,0.7,1.6,0.7,2.6s-0.2,1.8-0.7,2.6     c-0.5,0.8-1.1,1.4-1.9,1.8c-0.8,0.4-1.7,0.7-2.7,0.7S1072.1,519.6,1071.3,519.2z M1075.8,517.8c0.5-0.3,0.9-0.7,1.2-1.2     c0.3-0.5,0.4-1.1,0.4-1.8s-0.1-1.2-0.4-1.8c-0.3-0.5-0.7-0.9-1.2-1.2c-0.5-0.3-1.1-0.4-1.8-0.4s-1.2,0.1-1.8,0.4     c-0.5,0.3-0.9,0.7-1.2,1.2s-0.5,1.1-0.5,1.8s0.2,1.2,0.5,1.8s0.7,0.9,1.2,1.2c0.5,0.3,1.1,0.4,1.8,0.4S1075.2,518.1,1075.8,517.8     z"/>
			<path class="st9" d="M1087.2,512.6c0.6,0.3,1,0.8,1.4,1.3s0.5,1.3,0.5,2c0,0.8-0.2,1.4-0.5,2c-0.3,0.6-0.8,1-1.4,1.4     c-0.6,0.3-1.2,0.5-2,0.5c-1,0-1.8-0.3-2.4-1v3.6h-1.8v-10.2h1.7v1c0.3-0.4,0.6-0.6,1.1-0.8c0.4-0.2,0.9-0.3,1.4-0.3     C1086,512.1,1086.6,512.3,1087.2,512.6z M1086.6,517.7c0.4-0.4,0.6-1,0.6-1.7c0-0.7-0.2-1.3-0.6-1.7c-0.4-0.4-0.9-0.6-1.6-0.6     c-0.4,0-0.8,0.1-1.1,0.3c-0.3,0.2-0.6,0.5-0.8,0.8c-0.2,0.4-0.3,0.8-0.3,1.2s0.1,0.9,0.3,1.2c0.2,0.4,0.5,0.6,0.8,0.8     c0.3,0.2,0.7,0.3,1.1,0.3C1085.7,518.3,1086.2,518.1,1086.6,517.7z"/>
			<path class="st9" d="M1097.2,513c0.6,0.6,0.9,1.4,0.9,2.5v4.3h-1.8v-4.1c0-0.7-0.2-1.2-0.5-1.5c-0.3-0.3-0.8-0.5-1.3-0.5     c-0.6,0-1.2,0.2-1.5,0.6c-0.4,0.4-0.6,0.9-0.6,1.7v3.8h-1.8v-10.4h1.8v3.8c0.3-0.3,0.6-0.5,1.1-0.7c0.4-0.2,0.9-0.2,1.4-0.2     C1095.9,512.1,1096.7,512.4,1097.2,513z"/>
			<path class="st9" d="M1100.4,510.7c-0.2-0.2-0.3-0.5-0.3-0.8s0.1-0.5,0.3-0.8c0.2-0.2,0.5-0.3,0.8-0.3s0.6,0.1,0.8,0.3     c0.2,0.2,0.3,0.4,0.3,0.7c0,0.3-0.1,0.6-0.3,0.8s-0.5,0.3-0.8,0.3C1100.9,511,1100.6,510.9,1100.4,510.7z M1100.3,512.2h1.8v7.5     h-1.8V512.2z"/>
			<path class="st9" d="M1105.7,519.3c-0.6-0.3-1.1-0.8-1.4-1.4c-0.3-0.6-0.5-1.2-0.5-2s0.2-1.4,0.5-2c0.3-0.6,0.8-1,1.4-1.4     c0.6-0.3,1.3-0.5,2.1-0.5c0.8,0,1.5,0.2,2.1,0.5s1.1,0.8,1.4,1.4s0.5,1.2,0.5,2s-0.2,1.4-0.5,2c-0.3,0.6-0.8,1-1.4,1.4     s-1.3,0.5-2.1,0.5C1107,519.8,1106.3,519.6,1105.7,519.3z M1109.4,517.7c0.4-0.4,0.6-1,0.6-1.7c0-0.7-0.2-1.3-0.6-1.7     c-0.4-0.4-1-0.6-1.6-0.6s-1.2,0.2-1.6,0.6c-0.4,0.4-0.6,1-0.6,1.7c0,0.7,0.2,1.3,0.6,1.7c0.4,0.4,0.9,0.6,1.6,0.6     S1109,518.1,1109.4,517.7z"/>
			<path class="st9" d="M1113.5,509.3h1.8v10.4h-1.8V509.3z"/>
			<path class="st9" d="M1117.6,510.7c-0.2-0.2-0.3-0.5-0.3-0.8s0.1-0.5,0.3-0.8c0.2-0.2,0.5-0.3,0.8-0.3c0.3,0,0.6,0.1,0.8,0.3     s0.3,0.4,0.3,0.7c0,0.3-0.1,0.6-0.3,0.8s-0.5,0.3-0.8,0.3C1118.1,511,1117.8,510.9,1117.6,510.7z M1117.5,512.2h1.8v7.5h-1.8     V512.2z"/>
			<path class="st9" d="M1126.1,519.3c-0.2,0.2-0.5,0.3-0.8,0.4c-0.3,0.1-0.6,0.1-0.9,0.1c-0.8,0-1.5-0.2-1.9-0.6     c-0.5-0.4-0.7-1.1-0.7-1.9v-3.6h-1.2v-1.4h1.2v-1.7h1.8v1.7h2v1.4h-2v3.6c0,0.4,0.1,0.6,0.3,0.8c0.2,0.2,0.4,0.3,0.8,0.3     c0.4,0,0.7-0.1,1-0.3L1126.1,519.3z"/>
			<path class="st9" d="M1134.3,516.5h-5.9c0.1,0.6,0.4,1,0.8,1.3s1,0.5,1.6,0.5c0.8,0,1.5-0.3,2-0.8l0.9,1.1     c-0.3,0.4-0.8,0.7-1.3,0.9c-0.5,0.2-1.1,0.3-1.7,0.3c-0.8,0-1.6-0.2-2.2-0.5s-1.1-0.8-1.5-1.4c-0.3-0.6-0.5-1.2-0.5-2     c0-0.7,0.2-1.4,0.5-2c0.3-0.6,0.8-1,1.4-1.4c0.6-0.3,1.3-0.5,2-0.5c0.7,0,1.4,0.2,2,0.5s1,0.8,1.3,1.4s0.5,1.3,0.5,2     C1134.4,516.1,1134.3,516.3,1134.3,516.5z M1129.1,514c-0.4,0.3-0.6,0.8-0.7,1.3h4.3c-0.1-0.5-0.3-1-0.7-1.3     c-0.4-0.3-0.9-0.5-1.4-0.5C1130,513.5,1129.5,513.7,1129.1,514z"/>
			<path class="st9" d="M1148.4,515.5c0.3,0.4,0.5,0.9,0.5,1.6c0,0.9-0.3,1.5-1,2c-0.7,0.5-1.6,0.7-2.9,0.7h-4.9v-9.8h4.6     c1.2,0,2.1,0.2,2.7,0.7c0.6,0.5,0.9,1.1,0.9,1.9c0,0.5-0.1,0.9-0.3,1.3c-0.2,0.4-0.5,0.7-0.9,0.9     C1147.6,514.8,1148,515.1,1148.4,515.5z M1141.9,511.3v2.7h2.6c0.6,0,1.1-0.1,1.5-0.3c0.3-0.2,0.5-0.6,0.5-1c0-0.4-0.2-0.8-0.5-1     c-0.3-0.2-0.8-0.3-1.5-0.3H1141.9z M1147,516.9c0-0.9-0.7-1.4-2.1-1.4h-3v2.8h3C1146.3,518.3,1147,517.8,1147,516.9z"/>
			<path class="st9" d="M1157.6,516.5h-5.9c0.1,0.6,0.4,1,0.8,1.3c0.4,0.3,1,0.5,1.6,0.5c0.8,0,1.5-0.3,2-0.8l0.9,1.1     c-0.3,0.4-0.8,0.7-1.3,0.9s-1.1,0.3-1.7,0.3c-0.8,0-1.6-0.2-2.2-0.5s-1.1-0.8-1.5-1.4c-0.3-0.6-0.5-1.2-0.5-2     c0-0.7,0.2-1.4,0.5-2c0.3-0.6,0.8-1,1.4-1.4c0.6-0.3,1.3-0.5,2-0.5c0.7,0,1.4,0.2,2,0.5c0.6,0.3,1,0.8,1.3,1.4s0.5,1.3,0.5,2     C1157.7,516.1,1157.7,516.3,1157.6,516.5z M1152.5,514c-0.4,0.3-0.6,0.8-0.7,1.3h4.3c-0.1-0.5-0.3-1-0.7-1.3     c-0.4-0.3-0.9-0.5-1.4-0.5C1153.3,513.5,1152.8,513.7,1152.5,514z"/>
			<path class="st9" d="M1159.4,509.3h1.8v10.4h-1.8V509.3z"/>
			<path class="st9" d="M1168.3,519.3c-0.2,0.2-0.5,0.3-0.8,0.4c-0.3,0.1-0.6,0.1-0.9,0.1c-0.8,0-1.5-0.2-1.9-0.6     c-0.5-0.4-0.7-1.1-0.7-1.9v-3.6h-1.2v-1.4h1.2v-1.7h1.8v1.7h2v1.4h-2v3.6c0,0.4,0.1,0.6,0.3,0.8c0.2,0.2,0.4,0.3,0.8,0.3     c0.4,0,0.7-0.1,1-0.3L1168.3,519.3z"/>
		</g>
	</g>
	<g>
		<g class="st16">
			<path class="st9" d="M960.3,577.2H957v-1.5h8.4v1.5h-3.3v8.3h-1.8V577.2z"/>
			<path class="st9" d="M966.5,576.4c-0.2-0.2-0.3-0.5-0.3-0.8s0.1-0.5,0.3-0.8c0.2-0.2,0.5-0.3,0.8-0.3c0.3,0,0.6,0.1,0.8,0.3     s0.3,0.4,0.3,0.7c0,0.3-0.1,0.6-0.3,0.8s-0.5,0.3-0.8,0.3C966.9,576.7,966.7,576.6,966.5,576.4z M966.4,578h1.8v7.5h-1.8V578z"/>
			<path class="st9" d="M977.5,582.3h-5.9c0.1,0.6,0.4,1,0.8,1.3c0.4,0.3,1,0.5,1.6,0.5c0.8,0,1.5-0.3,2-0.8l0.9,1.1     c-0.3,0.4-0.8,0.7-1.3,0.9s-1.1,0.3-1.7,0.3c-0.8,0-1.6-0.2-2.2-0.5s-1.1-0.8-1.5-1.4c-0.3-0.6-0.5-1.2-0.5-2     c0-0.7,0.2-1.4,0.5-2c0.3-0.6,0.8-1,1.4-1.4c0.6-0.3,1.3-0.5,2-0.5c0.7,0,1.4,0.2,2,0.5c0.6,0.3,1,0.8,1.3,1.4s0.5,1.3,0.5,2     C977.5,581.9,977.5,582.1,977.5,582.3z M972.3,579.8c-0.4,0.3-0.6,0.8-0.7,1.3h4.3c-0.1-0.5-0.3-1-0.7-1.3     c-0.4-0.3-0.9-0.5-1.4-0.5C973.1,579.3,972.7,579.5,972.3,579.8z"/>
			<path class="st9" d="M985.7,578.7c0.6,0.6,0.9,1.4,0.9,2.5v4.3h-1.8v-4.1c0-0.7-0.2-1.2-0.5-1.5c-0.3-0.3-0.8-0.5-1.3-0.5     c-0.6,0-1.2,0.2-1.5,0.6c-0.4,0.4-0.6,0.9-0.6,1.7v3.8h-1.8V578h1.7v1c0.3-0.3,0.7-0.6,1.1-0.8c0.4-0.2,0.9-0.3,1.5-0.3     C984.4,577.9,985.1,578.2,985.7,578.7z"/>
			<path class="st9" d="M993.7,585.3c-0.7-0.2-1.3-0.5-1.7-0.9l0.6-1.4c0.4,0.3,0.9,0.6,1.5,0.8c0.6,0.2,1.2,0.3,1.8,0.3     c0.7,0,1.3-0.1,1.6-0.4c0.4-0.2,0.5-0.5,0.5-0.9c0-0.3-0.1-0.5-0.3-0.7s-0.5-0.3-0.8-0.4c-0.3-0.1-0.7-0.2-1.3-0.4     c-0.8-0.2-1.4-0.4-1.8-0.5c-0.5-0.2-0.9-0.5-1.2-0.8c-0.3-0.4-0.5-0.9-0.5-1.5c0-0.5,0.1-1,0.4-1.5s0.7-0.8,1.3-1.1     c0.6-0.3,1.3-0.4,2.2-0.4c0.6,0,1.2,0.1,1.8,0.2c0.6,0.2,1.1,0.4,1.5,0.6l-0.6,1.4c-0.4-0.3-0.9-0.4-1.3-0.6     c-0.5-0.1-0.9-0.2-1.4-0.2c-0.7,0-1.3,0.1-1.6,0.4s-0.5,0.6-0.5,1c0,0.3,0.1,0.5,0.3,0.7c0.2,0.2,0.5,0.3,0.8,0.4     c0.3,0.1,0.7,0.2,1.3,0.4c0.7,0.2,1.3,0.3,1.8,0.5s0.9,0.5,1.2,0.8c0.3,0.4,0.5,0.9,0.5,1.5c0,0.5-0.1,1-0.4,1.5     c-0.3,0.4-0.7,0.8-1.3,1.1c-0.6,0.3-1.3,0.4-2.2,0.4C995.1,585.6,994.4,585.5,993.7,585.3z"/>
			<path class="st9" d="M1008.1,578.7c0.6,0.6,0.9,1.4,0.9,2.5v4.3h-1.8v-4.1c0-0.7-0.2-1.2-0.5-1.5c-0.3-0.3-0.8-0.5-1.3-0.5     c-0.6,0-1.2,0.2-1.5,0.6c-0.4,0.4-0.6,0.9-0.6,1.7v3.8h-1.8v-10.4h1.8v3.8c0.3-0.3,0.6-0.5,1.1-0.7c0.4-0.2,0.9-0.2,1.4-0.2     C1006.7,577.9,1007.5,578.2,1008.1,578.7z"/>
			<path class="st9" d="M1016.6,578.7c0.6,0.5,0.9,1.3,0.9,2.4v4.4h-1.7v-0.9c-0.2,0.3-0.5,0.6-0.9,0.8c-0.4,0.2-0.9,0.3-1.4,0.3     c-0.6,0-1.1-0.1-1.5-0.3c-0.4-0.2-0.7-0.5-1-0.8c-0.2-0.3-0.3-0.7-0.3-1.2c0-0.7,0.3-1.2,0.8-1.6c0.5-0.4,1.3-0.6,2.4-0.6h1.9     V581c0-0.5-0.2-0.9-0.5-1.2c-0.3-0.3-0.8-0.4-1.4-0.4c-0.4,0-0.8,0.1-1.2,0.2c-0.4,0.1-0.8,0.3-1,0.5l-0.7-1.3     c0.4-0.3,0.9-0.5,1.4-0.7s1.1-0.2,1.8-0.2C1015.1,577.9,1016,578.2,1016.6,578.7z M1015,584c0.3-0.2,0.6-0.5,0.7-0.9v-0.9h-1.8     c-1,0-1.5,0.3-1.5,1c0,0.3,0.1,0.6,0.4,0.8s0.6,0.3,1.1,0.3C1014.2,584.3,1014.6,584.2,1015,584z"/>
			<path class="st9" d="M1026.2,578.7c0.6,0.6,0.9,1.4,0.9,2.5v4.3h-1.8v-4.1c0-0.7-0.2-1.2-0.5-1.5c-0.3-0.3-0.8-0.5-1.3-0.5     c-0.6,0-1.2,0.2-1.5,0.6c-0.4,0.4-0.6,0.9-0.6,1.7v3.8h-1.8V578h1.7v1c0.3-0.3,0.7-0.6,1.1-0.8c0.4-0.2,0.9-0.3,1.5-0.3     C1024.9,577.9,1025.6,578.2,1026.2,578.7z"/>
			<path class="st9" d="M1040.1,580.5h1.7v3.9c-0.5,0.4-1.1,0.7-1.8,0.9s-1.4,0.3-2.1,0.3c-1,0-1.9-0.2-2.7-0.7     c-0.8-0.4-1.4-1-1.9-1.8s-0.7-1.6-0.7-2.6s0.2-1.8,0.7-2.6s1.1-1.4,1.9-1.8c0.8-0.4,1.7-0.7,2.7-0.7c0.8,0,1.6,0.1,2.2,0.4     c0.7,0.3,1.2,0.7,1.7,1.2l-1.2,1.1c-0.7-0.8-1.7-1.1-2.7-1.1c-0.7,0-1.3,0.1-1.8,0.4c-0.5,0.3-1,0.7-1.3,1.2     c-0.3,0.5-0.5,1.1-0.5,1.8c0,0.7,0.2,1.2,0.5,1.8c0.3,0.5,0.7,0.9,1.3,1.2c0.5,0.3,1.1,0.5,1.8,0.5c0.8,0,1.4-0.2,2-0.5V580.5z"/>
			<path class="st9" d="M1045.4,585.1c-0.6-0.3-1.1-0.8-1.4-1.4c-0.3-0.6-0.5-1.2-0.5-2s0.2-1.4,0.5-2s0.8-1,1.4-1.4     s1.3-0.5,2.1-0.5c0.8,0,1.5,0.2,2.1,0.5c0.6,0.3,1.1,0.8,1.4,1.4c0.3,0.6,0.5,1.2,0.5,2s-0.2,1.4-0.5,2c-0.3,0.6-0.8,1-1.4,1.4     c-0.6,0.3-1.3,0.5-2.1,0.5C1046.7,585.6,1046,585.4,1045.4,585.1z M1049,583.4c0.4-0.4,0.6-1,0.6-1.7c0-0.7-0.2-1.3-0.6-1.7     c-0.4-0.4-1-0.6-1.6-0.6s-1.2,0.2-1.6,0.6c-0.4,0.4-0.6,1-0.6,1.7c0,0.7,0.2,1.3,0.6,1.7c0.4,0.4,0.9,0.6,1.6,0.6     S1048.6,583.9,1049,583.4z"/>
			<path class="st9" d="M1053.1,575.1h1.8v10.4h-1.8V575.1z"/>
			<path class="st9" d="M1064.5,575.1v10.4h-1.7v-1c-0.3,0.4-0.6,0.6-1.1,0.8c-0.4,0.2-0.9,0.3-1.4,0.3c-0.7,0-1.4-0.2-1.9-0.5     c-0.6-0.3-1-0.8-1.4-1.4c-0.3-0.6-0.5-1.3-0.5-2c0-0.8,0.2-1.4,0.5-2s0.8-1,1.4-1.3c0.6-0.3,1.2-0.5,1.9-0.5c0.5,0,1,0.1,1.4,0.3     s0.8,0.4,1.1,0.8v-3.9H1064.5z M1061.7,583.8c0.3-0.2,0.6-0.5,0.8-0.8c0.2-0.4,0.3-0.8,0.3-1.2s-0.1-0.9-0.3-1.2     s-0.5-0.6-0.8-0.8c-0.3-0.2-0.7-0.3-1.1-0.3c-0.4,0-0.8,0.1-1.1,0.3c-0.3,0.2-0.6,0.5-0.8,0.8c-0.2,0.4-0.3,0.8-0.3,1.2     s0.1,0.9,0.3,1.2c0.2,0.4,0.5,0.6,0.8,0.8c0.3,0.2,0.7,0.3,1.1,0.3C1061,584.1,1061.4,584,1061.7,583.8z"/>
			<path class="st9" d="M1079.1,581.3c0.3,0.4,0.5,0.9,0.5,1.6c0,0.9-0.3,1.5-1,2c-0.7,0.5-1.6,0.7-2.9,0.7h-4.9v-9.8h4.6     c1.2,0,2.1,0.2,2.7,0.7c0.6,0.5,0.9,1.1,0.9,1.9c0,0.5-0.1,0.9-0.3,1.3c-0.2,0.4-0.5,0.7-0.9,0.9     C1078.4,580.6,1078.8,580.8,1079.1,581.3z M1072.7,577.1v2.7h2.6c0.6,0,1.1-0.1,1.5-0.3c0.3-0.2,0.5-0.6,0.5-1     c0-0.4-0.2-0.8-0.5-1c-0.3-0.2-0.8-0.3-1.5-0.3H1072.7z M1077.8,582.6c0-0.9-0.7-1.4-2.1-1.4h-3v2.8h3     C1077.1,584.1,1077.8,583.6,1077.8,582.6z"/>
			<path class="st9" d="M1088.4,582.3h-5.9c0.1,0.6,0.4,1,0.8,1.3c0.4,0.3,1,0.5,1.6,0.5c0.8,0,1.5-0.3,2-0.8l0.9,1.1     c-0.3,0.4-0.8,0.7-1.3,0.9s-1.1,0.3-1.7,0.3c-0.8,0-1.6-0.2-2.2-0.5s-1.1-0.8-1.5-1.4c-0.3-0.6-0.5-1.2-0.5-2     c0-0.7,0.2-1.4,0.5-2c0.3-0.6,0.8-1,1.4-1.4c0.6-0.3,1.3-0.5,2-0.5c0.7,0,1.4,0.2,2,0.5c0.6,0.3,1,0.8,1.3,1.4s0.5,1.3,0.5,2     C1088.5,581.9,1088.5,582.1,1088.4,582.3z M1083.2,579.8c-0.4,0.3-0.6,0.8-0.7,1.3h4.3c-0.1-0.5-0.3-1-0.7-1.3     c-0.4-0.3-0.9-0.5-1.4-0.5C1084.1,579.3,1083.6,579.5,1083.2,579.8z"/>
			<path class="st9" d="M1090.1,575.1h1.8v10.4h-1.8V575.1z"/>
			<path class="st9" d="M1099.1,585.1c-0.2,0.2-0.5,0.3-0.8,0.4c-0.3,0.1-0.6,0.1-0.9,0.1c-0.8,0-1.5-0.2-1.9-0.6     c-0.5-0.4-0.7-1.1-0.7-1.9v-3.6h-1.2V578h1.2v-1.7h1.8v1.7h2v1.4h-2v3.6c0,0.4,0.1,0.6,0.3,0.8c0.2,0.2,0.4,0.3,0.8,0.3     c0.4,0,0.7-0.1,1-0.3L1099.1,585.1z"/>
		</g>
	</g>
	<g>
		<g class="st16">
			<path class="st9" d="M967,542.4v9.8h-1.5l-5.4-6.7v6.7h-1.8v-9.8h1.5l5.4,6.7v-6.7H967z"/>
			<path class="st9" d="M970.8,551.8c-0.6-0.3-1.1-0.8-1.4-1.4c-0.3-0.6-0.5-1.2-0.5-2s0.2-1.4,0.5-2c0.3-0.6,0.8-1,1.4-1.4     c0.6-0.3,1.3-0.5,2.1-0.5c0.8,0,1.5,0.2,2.1,0.5s1.1,0.8,1.4,1.4s0.5,1.2,0.5,2s-0.2,1.4-0.5,2c-0.3,0.6-0.8,1-1.4,1.4     s-1.3,0.5-2.1,0.5C972.1,552.3,971.4,552.1,970.8,551.8z M974.4,550.1c0.4-0.4,0.6-1,0.6-1.7c0-0.7-0.2-1.3-0.6-1.7     c-0.4-0.4-1-0.6-1.6-0.6s-1.2,0.2-1.6,0.6c-0.4,0.4-0.6,1-0.6,1.7c0,0.7,0.2,1.3,0.6,1.7c0.4,0.4,0.9,0.6,1.6,0.6     S974,550.6,974.4,550.1z"/>
			<path class="st9" d="M982.9,544.6v1.7c-0.1,0-0.3,0-0.4,0c-0.7,0-1.2,0.2-1.6,0.6c-0.4,0.4-0.6,1-0.6,1.7v3.6h-1.8v-7.5h1.7v1.1     C980.7,545,981.6,544.6,982.9,544.6z"/>
			<path class="st9" d="M989.2,551.8c-0.2,0.2-0.5,0.3-0.8,0.4c-0.3,0.1-0.6,0.1-0.9,0.1c-0.8,0-1.5-0.2-1.9-0.6     c-0.5-0.4-0.7-1.1-0.7-1.9v-3.6h-1.2v-1.4h1.2V543h1.8v1.7h2v1.4h-2v3.6c0,0.4,0.1,0.6,0.3,0.8c0.2,0.2,0.4,0.3,0.8,0.3     c0.4,0,0.7-0.1,1-0.3L989.2,551.8z"/>
			<path class="st9" d="M997.1,545.4c0.6,0.6,0.9,1.4,0.9,2.5v4.3h-1.8v-4.1c0-0.7-0.2-1.2-0.5-1.5c-0.3-0.3-0.8-0.5-1.3-0.5     c-0.6,0-1.2,0.2-1.5,0.6c-0.4,0.4-0.6,0.9-0.6,1.7v3.8h-1.8v-10.4h1.8v3.8c0.3-0.3,0.6-0.5,1.1-0.7c0.4-0.2,0.9-0.2,1.4-0.2     C995.8,544.6,996.6,544.9,997.1,545.4z"/>
			<path class="st9" d="M1007.7,548.1l-1.6,1.6v2.5h-1.8v-9.8h1.8v5l4.9-5h2.1l-4.1,4.4l4.4,5.4h-2.1L1007.7,548.1z"/>
			<path class="st9" d="M1020.9,545.4c0.6,0.6,0.9,1.4,0.9,2.5v4.3h-1.8v-4.1c0-0.7-0.2-1.2-0.5-1.5c-0.3-0.3-0.8-0.5-1.3-0.5     c-0.6,0-1.2,0.2-1.5,0.6c-0.4,0.4-0.6,0.9-0.6,1.7v3.8h-1.8v-10.4h1.8v3.8c0.3-0.3,0.6-0.5,1.1-0.7c0.4-0.2,0.9-0.2,1.4-0.2     C1019.6,544.6,1020.3,544.9,1020.9,545.4z"/>
			<path class="st9" d="M1031.1,549h-5.9c0.1,0.6,0.4,1,0.8,1.3c0.4,0.3,1,0.5,1.6,0.5c0.8,0,1.5-0.3,2-0.8l0.9,1.1     c-0.3,0.4-0.8,0.7-1.3,0.9s-1.1,0.3-1.7,0.3c-0.8,0-1.6-0.2-2.2-0.5s-1.1-0.8-1.5-1.4c-0.3-0.6-0.5-1.2-0.5-2     c0-0.7,0.2-1.4,0.5-2c0.3-0.6,0.8-1,1.4-1.4c0.6-0.3,1.3-0.5,2-0.5c0.7,0,1.4,0.2,2,0.5c0.6,0.3,1,0.8,1.3,1.4s0.5,1.3,0.5,2     C1031.1,548.6,1031.1,548.8,1031.1,549z M1025.9,546.5c-0.4,0.3-0.6,0.8-0.7,1.3h4.3c-0.1-0.5-0.3-1-0.7-1.3     c-0.4-0.3-0.9-0.5-1.4-0.5C1026.8,546,1026.3,546.2,1025.9,546.5z"/>
			<path class="st9" d="M1039.3,545.4c0.6,0.6,0.9,1.4,0.9,2.5v4.3h-1.8v-4.1c0-0.7-0.2-1.2-0.5-1.5c-0.3-0.3-0.8-0.5-1.3-0.5     c-0.6,0-1.2,0.2-1.5,0.6c-0.4,0.4-0.6,0.9-0.6,1.7v3.8h-1.8v-7.5h1.7v1c0.3-0.3,0.7-0.6,1.1-0.8c0.4-0.2,0.9-0.3,1.5-0.3     C1038,544.6,1038.8,544.9,1039.3,545.4z"/>
			<path class="st9" d="M1047,551.8c-0.2,0.2-0.5,0.3-0.8,0.4c-0.3,0.1-0.6,0.1-0.9,0.1c-0.8,0-1.5-0.2-1.9-0.6     c-0.5-0.4-0.7-1.1-0.7-1.9v-3.6h-1.2v-1.4h1.2V543h1.8v1.7h2v1.4h-2v3.6c0,0.4,0.1,0.6,0.3,0.8c0.2,0.2,0.4,0.3,0.8,0.3     c0.4,0,0.7-0.1,1-0.3L1047,551.8z"/>
			<path class="st9" d="M1048.5,543.2c-0.2-0.2-0.3-0.5-0.3-0.8s0.1-0.5,0.3-0.8c0.2-0.2,0.5-0.3,0.8-0.3s0.6,0.1,0.8,0.3     c0.2,0.2,0.3,0.4,0.3,0.7c0,0.3-0.1,0.6-0.3,0.8s-0.5,0.3-0.8,0.3C1049,543.5,1048.7,543.4,1048.5,543.2z M1048.4,544.7h1.8v7.5     h-1.8V544.7z"/>
			<path class="st9" d="M1052.5,543.2c-0.2-0.2-0.3-0.5-0.3-0.8s0.1-0.5,0.3-0.8c0.2-0.2,0.5-0.3,0.8-0.3s0.6,0.1,0.8,0.3     c0.2,0.2,0.3,0.4,0.3,0.7c0,0.3-0.1,0.6-0.3,0.8s-0.5,0.3-0.8,0.3C1053,543.5,1052.8,543.4,1052.5,543.2z M1052.5,544.7h1.8v7.5     h-1.8V544.7z"/>
			<path class="st9" d="M1067.3,547.2h1.7v3.9c-0.5,0.4-1.1,0.7-1.8,0.9s-1.4,0.3-2.1,0.3c-1,0-1.9-0.2-2.7-0.7     c-0.8-0.4-1.4-1-1.9-1.8s-0.7-1.6-0.7-2.6s0.2-1.8,0.7-2.6s1.1-1.4,1.9-1.8c0.8-0.4,1.7-0.7,2.7-0.7c0.8,0,1.6,0.1,2.2,0.4     c0.7,0.3,1.2,0.7,1.7,1.2l-1.2,1.1c-0.8-0.8-1.7-1.1-2.7-1.1c-0.7,0-1.3,0.1-1.8,0.4c-0.5,0.3-1,0.7-1.3,1.2     c-0.3,0.5-0.5,1.1-0.5,1.8c0,0.7,0.2,1.2,0.5,1.8c0.3,0.5,0.7,0.9,1.3,1.2c0.5,0.3,1.2,0.5,1.8,0.5c0.8,0,1.4-0.2,2-0.5V547.2z"/>
			<path class="st9" d="M1072.6,551.8c-0.6-0.3-1.1-0.8-1.4-1.4c-0.3-0.6-0.5-1.2-0.5-2s0.2-1.4,0.5-2c0.3-0.6,0.8-1,1.4-1.4     c0.6-0.3,1.3-0.5,2.1-0.5c0.8,0,1.5,0.2,2.1,0.5s1.1,0.8,1.4,1.4s0.5,1.2,0.5,2s-0.2,1.4-0.5,2c-0.3,0.6-0.8,1-1.4,1.4     s-1.3,0.5-2.1,0.5C1073.9,552.3,1073.2,552.1,1072.6,551.8z M1076.2,550.1c0.4-0.4,0.6-1,0.6-1.7c0-0.7-0.2-1.3-0.6-1.7     c-0.4-0.4-1-0.6-1.6-0.6s-1.2,0.2-1.6,0.6c-0.4,0.4-0.6,1-0.6,1.7c0,0.7,0.2,1.3,0.6,1.7c0.4,0.4,0.9,0.6,1.6,0.6     S1075.8,550.6,1076.2,550.1z"/>
			<path class="st9" d="M1080.3,541.8h1.8v10.4h-1.8V541.8z"/>
			<path class="st9" d="M1091.7,541.8v10.4h-1.7v-1c-0.3,0.4-0.6,0.6-1.1,0.8c-0.4,0.2-0.9,0.3-1.4,0.3c-0.7,0-1.4-0.2-1.9-0.5     c-0.6-0.3-1-0.8-1.4-1.4c-0.3-0.6-0.5-1.3-0.5-2c0-0.8,0.2-1.4,0.5-2c0.3-0.6,0.8-1,1.4-1.3c0.6-0.3,1.2-0.5,1.9-0.5     c0.5,0,1,0.1,1.4,0.3c0.4,0.2,0.8,0.4,1.1,0.8v-3.9H1091.7z M1088.9,550.5c0.3-0.2,0.6-0.5,0.8-0.8c0.2-0.4,0.3-0.8,0.3-1.2     s-0.1-0.9-0.3-1.2c-0.2-0.4-0.5-0.6-0.8-0.8s-0.7-0.3-1.1-0.3s-0.8,0.1-1.1,0.3c-0.3,0.2-0.6,0.5-0.8,0.8     c-0.2,0.4-0.3,0.8-0.3,1.2s0.1,0.9,0.3,1.2c0.2,0.4,0.5,0.6,0.8,0.8c0.3,0.2,0.7,0.3,1.1,0.3S1088.6,550.7,1088.9,550.5z"/>
			<path class="st9" d="M1106.4,548c0.3,0.4,0.5,0.9,0.5,1.6c0,0.9-0.3,1.5-1,2s-1.6,0.7-2.9,0.7h-4.9v-9.8h4.6     c1.2,0,2.1,0.2,2.7,0.7c0.6,0.5,0.9,1.1,0.9,1.9c0,0.5-0.1,0.9-0.3,1.3s-0.5,0.7-0.9,0.9C1105.6,547.3,1106,547.6,1106.4,548z      M1099.9,543.8v2.7h2.6c0.6,0,1.1-0.1,1.5-0.3s0.5-0.6,0.5-1c0-0.4-0.2-0.8-0.5-1s-0.8-0.3-1.5-0.3H1099.9z M1105,549.3     c0-0.9-0.7-1.4-2.1-1.4h-3v2.8h3C1104.3,550.8,1105,550.3,1105,549.3z"/>
			<path class="st9" d="M1115.6,549h-5.9c0.1,0.6,0.4,1,0.8,1.3s1,0.5,1.6,0.5c0.8,0,1.5-0.3,2-0.8l0.9,1.1     c-0.3,0.4-0.8,0.7-1.3,0.9c-0.5,0.2-1.1,0.3-1.7,0.3c-0.8,0-1.6-0.2-2.2-0.5s-1.1-0.8-1.5-1.4c-0.3-0.6-0.5-1.2-0.5-2     c0-0.7,0.2-1.4,0.5-2c0.3-0.6,0.8-1,1.4-1.4c0.6-0.3,1.3-0.5,2-0.5c0.7,0,1.4,0.2,2,0.5s1,0.8,1.3,1.4s0.5,1.3,0.5,2     C1115.7,548.6,1115.7,548.8,1115.6,549z M1110.5,546.5c-0.4,0.3-0.6,0.8-0.7,1.3h4.3c-0.1-0.5-0.3-1-0.7-1.3     c-0.4-0.3-0.9-0.5-1.4-0.5C1111.3,546,1110.8,546.2,1110.5,546.5z"/>
			<path class="st9" d="M1117.4,541.8h1.8v10.4h-1.8V541.8z"/>
			<path class="st9" d="M1126.3,551.8c-0.2,0.2-0.5,0.3-0.8,0.4c-0.3,0.1-0.6,0.1-0.9,0.1c-0.8,0-1.5-0.2-1.9-0.6     c-0.4-0.4-0.7-1.1-0.7-1.9v-3.6h-1.2v-1.4h1.2V543h1.8v1.7h2v1.4h-2v3.6c0,0.4,0.1,0.6,0.3,0.8s0.4,0.3,0.8,0.3     c0.4,0,0.7-0.1,1-0.3L1126.3,551.8z"/>
		</g>
	</g>
	<circle class="st17" cx="935.3" cy="547" r="14"/>
	<circle class="st17" cx="935.3" cy="514" r="14"/>
	<circle class="st17" cx="935.3" cy="580" r="14"/>
</g>
<g>
	<g class="st16">
		<path class="st9" d="M139,532.6v1.5h-7.4v-9.8h7.2v1.5h-5.4v2.6h4.8v1.5h-4.8v2.7H139z"/>
		<path class="st9" d="M145.5,534.1l-1.9-2.6l-1.9,2.6h-1.9l2.9-3.8l-2.8-3.7h2l1.8,2.5l1.8-2.5h1.9l-2.8,3.7l2.9,3.8H145.5z"/>
		<path class="st9" d="M154.9,527c0.6,0.3,1,0.8,1.4,1.3s0.5,1.3,0.5,2c0,0.8-0.2,1.4-0.5,2c-0.3,0.6-0.8,1-1.4,1.4    c-0.6,0.3-1.2,0.5-2,0.5c-1,0-1.8-0.3-2.4-1v3.6h-1.8v-10.2h1.7v1c0.3-0.4,0.6-0.6,1.1-0.8c0.4-0.2,0.9-0.3,1.4-0.3    C153.7,526.5,154.4,526.7,154.9,527z M154.4,532.1c0.4-0.4,0.6-1,0.6-1.7c0-0.7-0.2-1.3-0.6-1.7c-0.4-0.4-0.9-0.6-1.6-0.6    c-0.4,0-0.8,0.1-1.1,0.3s-0.6,0.5-0.8,0.8s-0.3,0.8-0.3,1.2s0.1,0.9,0.3,1.2c0.2,0.4,0.5,0.6,0.8,0.8c0.3,0.2,0.7,0.3,1.1,0.3    C153.4,532.7,153.9,532.5,154.4,532.1z"/>
		<path class="st9" d="M158.4,523.7h1.8v10.4h-1.8V523.7z"/>
		<path class="st9" d="M163.8,533.7c-0.6-0.3-1.1-0.8-1.4-1.4c-0.3-0.6-0.5-1.2-0.5-2s0.2-1.4,0.5-2c0.3-0.6,0.8-1,1.4-1.4    c0.6-0.3,1.3-0.5,2.1-0.5c0.8,0,1.5,0.2,2.1,0.5c0.6,0.3,1.1,0.8,1.4,1.4c0.3,0.6,0.5,1.2,0.5,2s-0.2,1.4-0.5,2    c-0.3,0.6-0.8,1-1.4,1.4c-0.6,0.3-1.3,0.5-2.1,0.5C165.1,534.2,164.4,534.1,163.8,533.7z M167.5,532.1c0.4-0.4,0.6-1,0.6-1.7    c0-0.7-0.2-1.3-0.6-1.7c-0.4-0.4-1-0.6-1.6-0.6s-1.2,0.2-1.6,0.6c-0.4,0.4-0.6,1-0.6,1.7c0,0.7,0.2,1.3,0.6,1.7    c0.4,0.4,0.9,0.6,1.6,0.6S167.1,532.5,167.5,532.1z"/>
		<path class="st9" d="M175.9,526.5v1.7c-0.1,0-0.3,0-0.4,0c-0.7,0-1.2,0.2-1.6,0.6c-0.4,0.4-0.6,1-0.6,1.7v3.6h-1.8v-7.5h1.7v1.1    C173.8,526.9,174.6,526.5,175.9,526.5z"/>
		<path class="st9" d="M182.8,527.3c0.6,0.5,0.9,1.3,0.9,2.4v4.4H182v-0.9c-0.2,0.3-0.5,0.6-0.9,0.8c-0.4,0.2-0.9,0.3-1.4,0.3    c-0.6,0-1.1-0.1-1.5-0.3c-0.4-0.2-0.7-0.5-1-0.8c-0.2-0.3-0.3-0.7-0.3-1.2c0-0.7,0.3-1.2,0.8-1.6c0.5-0.4,1.3-0.6,2.4-0.6h1.9    v-0.1c0-0.5-0.2-0.9-0.5-1.2s-0.8-0.4-1.4-0.4c-0.4,0-0.8,0.1-1.2,0.2c-0.4,0.1-0.8,0.3-1,0.5l-0.7-1.3c0.4-0.3,0.9-0.5,1.4-0.7    c0.6-0.2,1.1-0.2,1.8-0.2C181.3,526.5,182.2,526.8,182.8,527.3z M181.2,532.6c0.3-0.2,0.6-0.5,0.7-0.9v-0.9h-1.8    c-1,0-1.5,0.3-1.5,1c0,0.3,0.1,0.6,0.4,0.8s0.6,0.3,1.1,0.3C180.4,532.9,180.8,532.8,181.2,532.6z"/>
		<path class="st9" d="M190.4,533.7c-0.2,0.2-0.5,0.3-0.8,0.4c-0.3,0.1-0.6,0.1-0.9,0.1c-0.8,0-1.5-0.2-1.9-0.6    c-0.4-0.4-0.7-1.1-0.7-1.9v-3.6h-1.2v-1.4h1.2V525h1.8v1.7h2v1.4h-2v3.6c0,0.4,0.1,0.6,0.3,0.8c0.2,0.2,0.4,0.3,0.8,0.3    c0.4,0,0.7-0.1,1-0.3L190.4,533.7z"/>
		<path class="st9" d="M191.9,525.1c-0.2-0.2-0.3-0.5-0.3-0.8s0.1-0.5,0.3-0.8c0.2-0.2,0.5-0.3,0.8-0.3c0.3,0,0.6,0.1,0.8,0.3    c0.2,0.2,0.3,0.4,0.3,0.7c0,0.3-0.1,0.6-0.3,0.8s-0.5,0.3-0.8,0.3C192.4,525.4,192.2,525.3,191.9,525.1z M191.9,526.6h1.8v7.5    h-1.8V526.6z"/>
		<path class="st9" d="M197.2,533.7c-0.6-0.3-1.1-0.8-1.4-1.4c-0.3-0.6-0.5-1.2-0.5-2s0.2-1.4,0.5-2c0.3-0.6,0.8-1,1.4-1.4    c0.6-0.3,1.3-0.5,2.1-0.5c0.8,0,1.5,0.2,2.1,0.5c0.6,0.3,1.1,0.8,1.4,1.4c0.3,0.6,0.5,1.2,0.5,2s-0.2,1.4-0.5,2    c-0.3,0.6-0.8,1-1.4,1.4c-0.6,0.3-1.3,0.5-2.1,0.5C198.5,534.2,197.9,534.1,197.2,533.7z M200.9,532.1c0.4-0.4,0.6-1,0.6-1.7    c0-0.7-0.2-1.3-0.6-1.7c-0.4-0.4-1-0.6-1.6-0.6s-1.2,0.2-1.6,0.6c-0.4,0.4-0.6,1-0.6,1.7c0,0.7,0.2,1.3,0.6,1.7    c0.4,0.4,0.9,0.6,1.6,0.6S200.5,532.5,200.9,532.1z"/>
		<path class="st9" d="M211.5,527.4c0.6,0.6,0.9,1.4,0.9,2.5v4.3h-1.8V530c0-0.7-0.2-1.2-0.5-1.5c-0.3-0.3-0.8-0.5-1.3-0.5    c-0.6,0-1.2,0.2-1.5,0.6c-0.4,0.4-0.6,0.9-0.6,1.7v3.8H205v-7.5h1.7v1c0.3-0.3,0.7-0.6,1.1-0.8c0.4-0.2,0.9-0.3,1.5-0.3    C210.2,526.5,211,526.8,211.5,527.4z"/>
		<path class="st9" d="M218.7,524.3h1.8v8.3h5.1v1.5h-7V524.3z"/>
		<path class="st9" d="M227,525.1c-0.2-0.2-0.3-0.5-0.3-0.8s0.1-0.5,0.3-0.8c0.2-0.2,0.5-0.3,0.8-0.3c0.3,0,0.6,0.1,0.8,0.3    c0.2,0.2,0.3,0.4,0.3,0.7c0,0.3-0.1,0.6-0.3,0.8s-0.5,0.3-0.8,0.3C227.5,525.4,227.2,525.3,227,525.1z M226.9,526.6h1.8v7.5h-1.8    V526.6z"/>
		<path class="st9" d="M232.3,533.7c-0.6-0.3-1.1-0.8-1.4-1.4c-0.3-0.6-0.5-1.2-0.5-2s0.2-1.4,0.5-2s0.8-1,1.4-1.4s1.3-0.5,2.1-0.5    c0.7,0,1.4,0.2,1.9,0.5s1,0.7,1.3,1.3l-1.3,0.8c-0.2-0.3-0.5-0.6-0.8-0.8c-0.3-0.2-0.7-0.3-1.1-0.3c-0.7,0-1.2,0.2-1.6,0.6    c-0.4,0.4-0.6,1-0.6,1.7s0.2,1.3,0.6,1.7c0.4,0.4,1,0.6,1.6,0.6c0.4,0,0.7-0.1,1.1-0.3c0.3-0.2,0.6-0.4,0.8-0.8l1.3,0.8    c-0.3,0.6-0.7,1-1.3,1.3s-1.2,0.5-1.9,0.5C233.6,534.2,232.9,534.1,232.3,533.7z"/>
		<path class="st9" d="M246.1,530.9h-5.9c0.1,0.6,0.4,1,0.8,1.3c0.4,0.3,1,0.5,1.6,0.5c0.8,0,1.5-0.3,2-0.8l0.9,1.1    c-0.3,0.4-0.8,0.7-1.3,0.9c-0.5,0.2-1.1,0.3-1.7,0.3c-0.8,0-1.6-0.2-2.2-0.5s-1.1-0.8-1.5-1.4c-0.3-0.6-0.5-1.2-0.5-2    c0-0.7,0.2-1.4,0.5-2c0.3-0.6,0.8-1,1.4-1.4s1.3-0.5,2-0.5c0.7,0,1.4,0.2,2,0.5c0.6,0.3,1,0.8,1.3,1.4s0.5,1.3,0.5,2    C246.1,530.5,246.1,530.7,246.1,530.9z M240.9,528.4c-0.4,0.3-0.6,0.8-0.7,1.3h4.3c-0.1-0.5-0.3-1-0.7-1.3    c-0.4-0.3-0.9-0.5-1.4-0.5C241.7,527.9,241.3,528.1,240.9,528.4z"/>
		<path class="st9" d="M254.3,527.4c0.6,0.6,0.9,1.4,0.9,2.5v4.3h-1.8V530c0-0.7-0.2-1.2-0.5-1.5c-0.3-0.3-0.8-0.5-1.3-0.5    c-0.6,0-1.2,0.2-1.5,0.6c-0.4,0.4-0.6,0.9-0.6,1.7v3.8h-1.8v-7.5h1.7v1c0.3-0.3,0.7-0.6,1.1-0.8c0.4-0.2,0.9-0.3,1.5-0.3    C253,526.5,253.7,526.8,254.3,527.4z"/>
		<path class="st9" d="M257.9,534c-0.6-0.2-1-0.4-1.4-0.6l0.7-1.3c0.3,0.2,0.7,0.4,1.2,0.5c0.5,0.1,0.9,0.2,1.4,0.2    c1,0,1.6-0.3,1.6-0.8c0-0.3-0.1-0.4-0.4-0.5s-0.7-0.2-1.3-0.3c-0.6-0.1-1.1-0.2-1.5-0.3c-0.4-0.1-0.7-0.3-1-0.6s-0.4-0.7-0.4-1.3    c0-0.7,0.3-1.3,0.9-1.7s1.4-0.6,2.4-0.6c0.5,0,1,0.1,1.5,0.2c0.5,0.1,0.9,0.3,1.3,0.5l-0.7,1.3c-0.6-0.4-1.4-0.6-2.2-0.6    c-0.5,0-0.9,0.1-1.2,0.2c-0.3,0.2-0.4,0.4-0.4,0.6c0,0.3,0.1,0.5,0.4,0.6c0.3,0.1,0.7,0.2,1.3,0.3c0.6,0.1,1.1,0.2,1.5,0.3    c0.4,0.1,0.7,0.3,1,0.6c0.3,0.3,0.4,0.7,0.4,1.2c0,0.7-0.3,1.3-0.9,1.7c-0.6,0.4-1.4,0.6-2.5,0.6    C259.1,534.2,258.5,534.1,257.9,534z"/>
		<path class="st9" d="M271.7,530.9h-5.9c0.1,0.6,0.4,1,0.8,1.3c0.4,0.3,1,0.5,1.6,0.5c0.8,0,1.5-0.3,2-0.8l0.9,1.1    c-0.3,0.4-0.8,0.7-1.3,0.9c-0.5,0.2-1.1,0.3-1.7,0.3c-0.8,0-1.6-0.2-2.2-0.5s-1.1-0.8-1.5-1.4c-0.3-0.6-0.5-1.2-0.5-2    c0-0.7,0.2-1.4,0.5-2c0.3-0.6,0.8-1,1.4-1.4s1.3-0.5,2-0.5c0.7,0,1.4,0.2,2,0.5c0.6,0.3,1,0.8,1.3,1.4s0.5,1.3,0.5,2    C271.7,530.5,271.7,530.7,271.7,530.9z M266.5,528.4c-0.4,0.3-0.6,0.8-0.7,1.3h4.3c-0.1-0.5-0.3-1-0.7-1.3    c-0.4-0.3-0.9-0.5-1.4-0.5C267.3,527.9,266.9,528.1,266.5,528.4z"/>
		<path class="st9" d="M273.9,534c-0.6-0.2-1-0.4-1.4-0.6l0.7-1.3c0.3,0.2,0.7,0.4,1.2,0.5c0.5,0.1,0.9,0.2,1.4,0.2    c1,0,1.6-0.3,1.6-0.8c0-0.3-0.1-0.4-0.4-0.5s-0.7-0.2-1.3-0.3c-0.6-0.1-1.1-0.2-1.5-0.3c-0.4-0.1-0.7-0.3-1-0.6s-0.4-0.7-0.4-1.3    c0-0.7,0.3-1.3,0.9-1.7s1.4-0.6,2.4-0.6c0.5,0,1,0.1,1.5,0.2c0.5,0.1,0.9,0.3,1.3,0.5l-0.7,1.3c-0.6-0.4-1.4-0.6-2.2-0.6    c-0.5,0-0.9,0.1-1.2,0.2c-0.3,0.2-0.4,0.4-0.4,0.6c0,0.3,0.1,0.5,0.4,0.6c0.3,0.1,0.7,0.2,1.3,0.3c0.6,0.1,1.1,0.2,1.5,0.3    c0.4,0.1,0.7,0.3,1,0.6c0.3,0.3,0.4,0.7,0.4,1.2c0,0.7-0.3,1.3-0.9,1.7c-0.6,0.4-1.4,0.6-2.5,0.6    C275.1,534.2,274.5,534.1,273.9,534z"/>
	</g>
</g>
<g>
	<g class="st16">
		<path class="st9" d="M132.1,578c-0.8-0.4-1.4-1-1.9-1.8c-0.5-0.8-0.7-1.6-0.7-2.6s0.2-1.8,0.7-2.6c0.5-0.8,1.1-1.4,1.9-1.8    c0.8-0.4,1.7-0.7,2.7-0.7c1,0,1.9,0.2,2.7,0.7c0.8,0.4,1.4,1,1.9,1.8c0.5,0.8,0.7,1.6,0.7,2.6s-0.2,1.8-0.7,2.6    c-0.5,0.8-1.1,1.4-1.9,1.8c-0.8,0.4-1.7,0.7-2.7,0.7C133.8,578.6,132.9,578.4,132.1,578z M136.5,576.6c0.5-0.3,0.9-0.7,1.2-1.2    c0.3-0.5,0.4-1.1,0.4-1.8s-0.1-1.2-0.4-1.8c-0.3-0.5-0.7-0.9-1.2-1.2c-0.5-0.3-1.1-0.4-1.8-0.4c-0.7,0-1.2,0.1-1.8,0.4    c-0.5,0.3-0.9,0.7-1.2,1.2s-0.4,1.1-0.4,1.8s0.1,1.2,0.4,1.8s0.7,0.9,1.2,1.2c0.5,0.3,1.1,0.4,1.8,0.4    C135.4,577,136,576.9,136.5,576.6z"/>
		<path class="st9" d="M148,571.4c0.6,0.3,1,0.8,1.4,1.3s0.5,1.3,0.5,2c0,0.8-0.2,1.4-0.5,2c-0.3,0.6-0.8,1-1.4,1.4    c-0.6,0.3-1.2,0.5-2,0.5c-1,0-1.8-0.3-2.4-1v3.6h-1.8V571h1.7v1c0.3-0.4,0.6-0.6,1.1-0.8c0.4-0.2,0.9-0.3,1.4-0.3    C146.7,570.9,147.4,571.1,148,571.4z M147.4,576.5c0.4-0.4,0.6-1,0.6-1.7c0-0.7-0.2-1.3-0.6-1.7c-0.4-0.4-0.9-0.6-1.6-0.6    c-0.4,0-0.8,0.1-1.1,0.3s-0.6,0.5-0.8,0.8s-0.3,0.8-0.3,1.2s0.1,0.9,0.3,1.2c0.2,0.4,0.5,0.6,0.8,0.8c0.3,0.2,0.7,0.3,1.1,0.3    C146.4,577.1,147,576.9,147.4,576.5z"/>
		<path class="st9" d="M158.5,575.3h-5.9c0.1,0.6,0.4,1,0.8,1.3c0.4,0.3,1,0.5,1.6,0.5c0.8,0,1.5-0.3,2-0.8l0.9,1.1    c-0.3,0.4-0.8,0.7-1.3,0.9c-0.5,0.2-1.1,0.3-1.7,0.3c-0.8,0-1.6-0.2-2.2-0.5s-1.1-0.8-1.5-1.4c-0.3-0.6-0.5-1.2-0.5-2    c0-0.7,0.2-1.4,0.5-2c0.3-0.6,0.8-1,1.4-1.4s1.3-0.5,2-0.5c0.7,0,1.4,0.2,2,0.5c0.6,0.3,1,0.8,1.3,1.4s0.5,1.3,0.5,2    C158.5,574.9,158.5,575.1,158.5,575.3z M153.3,572.8c-0.4,0.3-0.6,0.8-0.7,1.3h4.3c-0.1-0.5-0.3-1-0.7-1.3    c-0.4-0.3-0.9-0.5-1.4-0.5C154.2,572.3,153.7,572.5,153.3,572.8z"/>
		<path class="st9" d="M164.6,570.9v1.7c-0.1,0-0.3,0-0.4,0c-0.7,0-1.2,0.2-1.6,0.6c-0.4,0.4-0.6,1-0.6,1.7v3.6h-1.8V571h1.7v1.1    C162.4,571.3,163.3,570.9,164.6,570.9z"/>
		<path class="st9" d="M171.4,571.7c0.6,0.5,0.9,1.3,0.9,2.4v4.4h-1.7v-0.9c-0.2,0.3-0.5,0.6-0.9,0.8c-0.4,0.2-0.9,0.3-1.4,0.3    c-0.6,0-1.1-0.1-1.5-0.3c-0.4-0.2-0.7-0.5-1-0.8c-0.2-0.3-0.3-0.7-0.3-1.2c0-0.7,0.3-1.2,0.8-1.6c0.5-0.4,1.3-0.6,2.4-0.6h1.9V574    c0-0.5-0.2-0.9-0.5-1.2s-0.8-0.4-1.4-0.4c-0.4,0-0.8,0.1-1.2,0.2c-0.4,0.1-0.8,0.3-1,0.5l-0.7-1.3c0.4-0.3,0.9-0.5,1.4-0.7    c0.6-0.2,1.1-0.2,1.8-0.2C170,570.9,170.8,571.2,171.4,571.7z M169.8,577c0.3-0.2,0.6-0.5,0.7-0.9v-0.9h-1.8c-1,0-1.5,0.3-1.5,1    c0,0.3,0.1,0.6,0.4,0.8s0.6,0.3,1.1,0.3C169.1,577.3,169.5,577.2,169.8,577z"/>
		<path class="st9" d="M179.1,578.1c-0.2,0.2-0.5,0.3-0.8,0.4c-0.3,0.1-0.6,0.1-0.9,0.1c-0.8,0-1.5-0.2-1.9-0.6    c-0.4-0.4-0.7-1.1-0.7-1.9v-3.6h-1.2v-1.4h1.2v-1.7h1.8v1.7h2v1.4h-2v3.6c0,0.4,0.1,0.6,0.3,0.8c0.2,0.2,0.4,0.3,0.8,0.3    c0.4,0,0.7-0.1,1-0.3L179.1,578.1z"/>
		<path class="st9" d="M180.6,569.5c-0.2-0.2-0.3-0.5-0.3-0.8s0.1-0.5,0.3-0.8c0.2-0.2,0.5-0.3,0.8-0.3c0.3,0,0.6,0.1,0.8,0.3    c0.2,0.2,0.3,0.4,0.3,0.7c0,0.3-0.1,0.6-0.3,0.8s-0.5,0.3-0.8,0.3C181.1,569.8,180.8,569.7,180.6,569.5z M180.5,571h1.8v7.5h-1.8    V571z"/>
		<path class="st9" d="M191.1,571.7c0.6,0.6,0.9,1.4,0.9,2.5v4.3h-1.8v-4.1c0-0.7-0.2-1.2-0.5-1.5c-0.3-0.3-0.8-0.5-1.3-0.5    c-0.6,0-1.2,0.2-1.5,0.6c-0.4,0.4-0.6,0.9-0.6,1.7v3.8h-1.8V571h1.7v1c0.3-0.3,0.7-0.6,1.1-0.8c0.4-0.2,0.9-0.3,1.5-0.3    C189.8,570.9,190.5,571.2,191.1,571.7z"/>
		<path class="st9" d="M201.7,571v6.4c0,2.6-1.3,4-4,4c-0.7,0-1.4-0.1-2.1-0.3c-0.6-0.2-1.2-0.4-1.6-0.8l0.8-1.3    c0.3,0.3,0.7,0.5,1.2,0.7c0.5,0.2,1,0.2,1.5,0.2c0.8,0,1.4-0.2,1.8-0.6c0.4-0.4,0.6-0.9,0.6-1.7v-0.4c-0.3,0.3-0.7,0.6-1.1,0.7    c-0.4,0.2-0.9,0.3-1.4,0.3c-0.7,0-1.4-0.2-1.9-0.5c-0.6-0.3-1-0.7-1.4-1.3c-0.3-0.6-0.5-1.2-0.5-1.9c0-0.7,0.2-1.3,0.5-1.9    c0.3-0.5,0.8-1,1.4-1.3c0.6-0.3,1.2-0.5,1.9-0.5c0.5,0,1,0.1,1.5,0.3c0.4,0.2,0.8,0.4,1.1,0.8v-1H201.7z M199.3,576.1    c0.4-0.4,0.6-0.9,0.6-1.6c0-0.6-0.2-1.1-0.6-1.5c-0.4-0.4-1-0.6-1.6-0.6c-0.7,0-1.2,0.2-1.7,0.6s-0.6,0.9-0.6,1.5    c0,0.6,0.2,1.2,0.6,1.6s1,0.6,1.7,0.6C198.4,576.7,198.9,576.5,199.3,576.1z"/>
		<path class="st9" d="M217.1,578.5l0-6.5l-3.2,5.4H213l-3.2-5.3v6.4h-1.7v-9.8h1.5l3.9,6.5l3.8-6.5h1.5l0,9.8H217.1z"/>
		<path class="st9" d="M221.4,569.5c-0.2-0.2-0.3-0.5-0.3-0.8s0.1-0.5,0.3-0.8c0.2-0.2,0.5-0.3,0.8-0.3c0.3,0,0.6,0.1,0.8,0.3    c0.2,0.2,0.3,0.4,0.3,0.7c0,0.3-0.1,0.6-0.3,0.8s-0.5,0.3-0.8,0.3C221.9,569.8,221.6,569.7,221.4,569.5z M221.3,571h1.8v7.5h-1.8    V571z"/>
		<path class="st9" d="M231.9,571.7c0.6,0.6,0.9,1.4,0.9,2.5v4.3H231v-4.1c0-0.7-0.2-1.2-0.5-1.5c-0.3-0.3-0.8-0.5-1.3-0.5    c-0.6,0-1.2,0.2-1.5,0.6c-0.4,0.4-0.6,0.9-0.6,1.7v3.8h-1.8V571h1.7v1c0.3-0.3,0.7-0.6,1.1-0.8c0.4-0.2,0.9-0.3,1.5-0.3    C230.6,570.9,231.4,571.2,231.9,571.7z"/>
		<path class="st9" d="M242.1,575.3h-5.9c0.1,0.6,0.4,1,0.8,1.3c0.4,0.3,1,0.5,1.6,0.5c0.8,0,1.5-0.3,2-0.8l0.9,1.1    c-0.3,0.4-0.8,0.7-1.3,0.9c-0.5,0.2-1.1,0.3-1.7,0.3c-0.8,0-1.6-0.2-2.2-0.5s-1.1-0.8-1.5-1.4c-0.3-0.6-0.5-1.2-0.5-2    c0-0.7,0.2-1.4,0.5-2c0.3-0.6,0.8-1,1.4-1.4s1.3-0.5,2-0.5c0.7,0,1.4,0.2,2,0.5c0.6,0.3,1,0.8,1.3,1.4s0.5,1.3,0.5,2    C242.1,574.9,242.1,575.1,242.1,575.3z M236.9,572.8c-0.4,0.3-0.6,0.8-0.7,1.3h4.3c-0.1-0.5-0.3-1-0.7-1.3    c-0.4-0.3-0.9-0.5-1.4-0.5C237.8,572.3,237.3,572.5,236.9,572.8z"/>
	</g>
</g>
<g>
	<text transform="matrix(1 0 0 1 130.3211 696.1812)" class="st9 st13" style="font-size:14.0569px;">Exploration Licenses</text>
</g>
<g>
	<text transform="matrix(1 0 0 1 128.8465 740.5689)" class="st9 st13" style="font-size:14.0569px;">Operating Mine</text>
</g>
<g>
	<g id="Ellipse_70_00000020367170952377874050000010209212756748503435_" transform="matrix(1, 0, 0, 1, 5.413, 4.165)">
		<ellipse class="st6" cx="1336.2" cy="435.3" rx="6.9" ry="6.9"/>
		<ellipse class="st7" cx="1336.2" cy="435.3" rx="6.4" ry="6.4"/>
	</g>
	<path id="ic_location_on_24px_00000116950344889607338990000007194872631479474098_" class="st9" d="M1341,428.5   c-6.4,0-11.6,5.2-11.6,11.5l0,0c0,8.6,11.6,21.5,11.6,21.5s11.6-12.8,11.6-21.5C1352.7,433.7,1347.4,428.5,1341,428.5L1341,428.5z    M1341,444.3c-2.3,0-4.2-1.8-4.2-4.2c0-2.3,1.8-4.2,4.2-4.2c2.4,0,4.2,1.8,4.2,4.2S1343.4,444.3,1341,444.3z"/>
</g>
<g>
	<g id="Ellipse_70_00000085961259596523457110000007351751516598829720_" transform="matrix(1, 0, 0, 1, 5.413, 4.165)">
		<ellipse class="st6" cx="1376.2" cy="436.1" rx="6.9" ry="6.9"/>
		<ellipse class="st7" cx="1376.2" cy="436.1" rx="6.4" ry="6.4"/>
	</g>
	<path id="ic_location_on_24px_00000157282453300158763850000017018642155573865403_" class="st8" d="M1381,429.3   c-6.4,0-11.6,5.2-11.6,11.5l0,0c0,8.6,11.6,21.5,11.6,21.5s11.6-12.8,11.6-21.5C1392.6,434.5,1387.4,429.3,1381,429.3L1381,429.3z    M1381,445c-2.3,0-4.2-1.8-4.2-4.2c0-2.3,1.8-4.2,4.2-4.2c2.3,0,4.2,1.8,4.2,4.2C1385.1,443.2,1383.3,445,1381,445z"/>
</g>
<script xmlns=""/></svg>