<svg width="50" height="50" viewBox="0 0 50 50" fill="none" xmlns="http://www.w3.org/2000/svg">
<path d="M48.6851 17.0065C26.0803 24.9982 20.1245 39.4829 20.1245 39.4829C20.1245 39.4829 15.8284 37.3848 22.8153 30.2925C32.3605 20.6035 46.315 17.4343 48.6679 16.9568C48.2857 15.837 47.8212 14.7305 47.2681 13.6457C40.9968 1.34813 25.9431 -3.53763 13.6449 2.73301C3.97791 7.66224 -1.10774 18.0172 0.203617 28.1953C0.781836 27.2655 1.49914 26.3721 2.36974 25.5353C4.04608 23.926 6.11379 22.4134 8.64888 21.0582C25.9043 11.8321 40.9274 13.6205 40.9274 13.6205C24.1049 15.1597 7.74828 25.494 7.22301 34.7979C7.07601 37.4007 7.82817 39.7084 8.89786 41.6284C11.1277 45.6317 15.0542 48.3816 19.5248 49.3881C25.0141 50.6237 30.9503 50.0229 36.355 47.2671C47.5521 41.5577 52.6036 28.5686 48.6851 17.0065ZM11.2098 35.318C11.9776 28.7976 24.3368 15.7702 47.8459 15.0919C47.8459 15.0919 14.4334 20.1652 12.9885 43.2132C12.9885 43.2132 10.6189 40.3412 11.2098 35.318Z" fill="#FF7D44"/>
</svg>
