<svg id="Layer_1" viewBox="0 0 512 512" xmlns="http://www.w3.org/2000/svg" data-name="Layer 1"><path d="m298.53 308.692c46.081-11.301 79.319-45.49 87.041-89.845 7.562-43.441-11.65-85.549-50.14-109.89-3.168-2.004-7.191-2.067-10.422-.164-3.229 1.903-5.124 5.454-4.906 9.196.764 13.101-9.465 28.167-21.307 45.611-11.813 17.4-25.202 37.122-30.727 60.227-5.955 24.905-1.778 49.244 12.761 74.173-7.619 7.451-16.08 14.603-25.471 21.563-2.169-4.333-4.443-8.511-6.822-12.553.792-42.666-21.242-79.483-58.029-96.539-36.135-16.756-77.361-9.843-107.59 18.04-2.756 2.542-3.858 6.412-2.855 10.024 1.003 3.613 3.941 6.361 7.613 7.119 11.126 2.298 21.652 14.48 33.84 28.586 19.135 22.146 43.909 50.821 85.298 50.821 8.256 0 17.186-1.164 26.851-3.726 2.734 4.917 5.307 10.053 7.724 15.44v61.359c-7.276.999-14.445 3.092-21.27 6.28-5.004 2.337-7.165 8.288-4.827 13.292 2.337 5.003 8.286 7.167 13.292 4.827 14.491-6.77 31.115-6.77 45.608 0 1.369.64 2.809.942 4.226.942 3.764 0 7.369-2.135 9.066-5.77 2.338-5.004.177-10.955-4.827-13.292-6.823-3.188-13.992-5.281-21.269-6.279v-58.249c14.113-9.97 26.426-20.274 37.14-31.196zm16.813-133.858c9.091-13.392 17.838-26.275 22.101-39.433 22.924 20.366 33.679 49.827 28.424 80.016-4.474 25.7-19.541 47.267-41.484 61.027 12.892-20.046 22.051-42.418 28.32-68.352 1.298-5.368-2.002-10.771-7.37-12.069-5.375-1.303-10.772 2.003-12.069 7.37-7.516 31.093-19.629 56.6-38.14 79.074-22.723-44.357-.925-76.487 20.219-107.633zm-151.223 79.104c24.545 13.376 43.368 29.288 58.152 49.533-41.942 8.25-64.115-17.414-85.623-42.307-9.094-10.524-17.857-20.668-27.774-27.478 22.306-14.081 49.224-16.198 73.221-5.072 19.355 8.974 33.61 24.904 40.929 44.599-13.67-14.199-29.886-26.238-49.334-36.836-4.848-2.644-10.923-.854-13.565 3.995-2.644 4.85-.854 10.923 3.995 13.565zm-155.489 32.133c3.651-4.145 9.972-4.543 14.114-.892l9.063 7.986c-1.146-9.173-1.724-18.447-1.724-27.724 0-59.112 23.02-114.688 64.819-156.486 41.799-41.799 97.373-64.818 156.486-64.818 34.07 0 66.751 7.538 97.137 22.404 4.961 2.427 7.015 8.416 4.588 13.377-2.428 4.96-8.417 7.016-13.377 4.588-27.626-13.516-57.351-20.369-88.348-20.369-111 0-201.306 90.305-201.306 201.305 0 9.106.61 18.206 1.821 27.19l8.036-13.613c2.807-4.754 8.937-6.336 13.695-3.527 4.756 2.808 6.335 8.939 3.527 13.695l-21.269 36.028c-1.516 2.566-4.098 4.324-7.042 4.792-.522.083-1.048.124-1.569.124-2.417 0-4.771-.876-6.611-2.497l-31.151-27.449c-4.144-3.651-4.543-9.971-.892-14.114zm485.519-41.259c-3.651 4.145-9.972 4.543-14.114.892l-9.064-7.987c1.146 9.176 1.725 18.449 1.725 27.726 0 59.112-23.02 114.688-64.819 156.486-41.799 41.799-97.373 64.818-156.486 64.818-26.278 0-51.997-4.562-76.442-13.56-5.183-1.908-7.838-7.656-5.931-12.839 1.908-5.184 7.656-7.836 12.839-5.931 22.226 8.182 45.62 12.329 69.534 12.329 111 0 201.306-90.305 201.306-201.305 0-9.104-.611-18.205-1.822-27.19l-8.036 13.613c-2.807 4.755-8.936 6.337-13.695 3.527-4.756-2.808-6.335-8.939-3.527-13.695l21.27-36.029c1.516-2.566 4.098-4.324 7.042-4.792s5.944.401 8.181 2.373l31.151 27.449c4.144 3.651 4.543 9.971.892 14.114zm4.808-210.057c-17.239-5.603-35.854-14.322-58.396-25.14-2.734-1.312-5.918-1.312-8.652 0-22.541 10.817-41.153 19.537-58.395 25.14-4.12 1.34-6.909 5.179-6.909 9.511v58.479c0 9.158 2.235 17.374 6.834 25.116 10.19 17.158 31.621 29.87 50.53 41.086 2.433 1.442 4.81 2.853 7.092 4.232 1.591.962 3.382 1.442 5.174 1.442s3.583-.48 5.173-1.442c2.282-1.379 4.658-2.788 7.091-4.231 18.91-11.216 40.343-23.928 50.533-41.087 4.599-7.742 6.834-15.958 6.834-25.116v-58.479c0-4.332-2.789-8.171-6.909-9.511zm-13.091 67.99c0 5.539-1.28 10.274-4.029 14.903-7.586 12.772-27.521 24.598-43.541 34.099-.691.41-1.379.817-2.061 1.223-.683-.405-1.37-.813-2.062-1.224-16.018-9.501-35.952-21.325-43.538-34.098-2.749-4.629-4.029-9.364-4.029-14.903v-51.339c15.177-5.464 31.148-12.849 49.63-21.687 18.483 8.838 34.456 16.223 49.631 21.687v51.339zm-39.631-43.494v22.376h22.376v20h-22.376v22.375h-20v-22.375h-22.375v-20h22.375v-22.376zm-303.353 341.496h-34.127v-34.127c0-5.522-4.478-10-10-10h-38.495c-5.522 0-10 4.478-10 10v34.127h-34.127c-5.522 0-10 4.478-10 10v38.494c0 5.522 4.478 10 10 10h34.127v34.128c0 5.522 4.478 10 10 10h38.495c5.522 0 10-4.478 10-10v-34.128h34.127c5.522 0 10-4.478 10-10v-38.494c0-5.522-4.478-10-10-10zm-10 38.494h-34.127c-5.522 0-10 4.478-10 10v34.128h-18.495v-34.128c0-5.522-4.478-10-10-10h-34.127v-18.494h34.127c5.522 0 10-4.478 10-10v-34.127h18.495v34.127c0 5.522 4.478 10 10 10h34.127z"/></svg>