<?xml version="1.0" encoding="UTF-8"?>
<svg xmlns="http://www.w3.org/2000/svg" id="Layer_1" data-name="Layer 1" viewBox="0 0 68 68" width="512" height="512"><path d="M9.83,57.83h-6A1.87,1.87,0,0,1,2,56V35.82A1.87,1.87,0,0,1,3.87,34h6a1.87,1.87,0,0,1,1.86,1.87V56A1.87,1.87,0,0,1,9.83,57.83ZM4,55.83H9.69V36H4Z"/><path d="M35.38,66a16.63,16.63,0,0,1-7.62-1.84L10.22,54.7a1,1,0,0,1-.53-.88V38a1,1,0,0,1,1-1h13.8a8.52,8.52,0,0,1,6.84,3.25A6.69,6.69,0,0,0,36.75,43H44a5,5,0,0,1,3.65,1.59,4.49,4.49,0,0,1,1.25,3.4,4.89,4.89,0,0,1-.23,1.15c3.92-1.18,9.07-2.87,10.9-3.48a4.85,4.85,0,0,1,5.56,1.76h0l0,0h0a5,5,0,0,1-1.31,6.77C59.7,57.09,48.26,62,41.81,64.71A16.74,16.74,0,0,1,35.38,66ZM11.69,53.22l17,9.17A14.69,14.69,0,0,0,41,62.87c6.38-2.66,17.67-7.52,21.69-10.32h0a2.94,2.94,0,0,0,.78-4h0a.08.08,0,0,0,0,0,2.88,2.88,0,0,0-3.27-1C57.79,48.31,49.57,51,46,52a1,1,0,0,1-1.2-.64,1,1,0,0,1,.55-1.25,2.62,2.62,0,0,0,.8-.54,2.66,2.66,0,0,0,.78-1.71,2.51,2.51,0,0,0-.71-1.91A3,3,0,0,0,44,45H36.75a8.77,8.77,0,0,1-3.85-.89,8.51,8.51,0,0,1-3.18-2.66A6.51,6.51,0,0,0,24.49,39H11.69Z"/><path d="M44.25,52.3H27.34a1,1,0,0,1,0-2H44.25a2.67,2.67,0,0,0,0-5.34h-7.5a8.69,8.69,0,0,1-6.92-3.39A6.72,6.72,0,0,0,24.49,39H15.54a1,1,0,0,1,0-2h9a8.68,8.68,0,0,1,6.92,3.39A6.83,6.83,0,0,0,36.75,43h7.5a4.67,4.67,0,0,1,0,9.34Z"/><path d="M46.81,40.05A12.14,12.14,0,0,1,36,22.48l10-19.93a1,1,0,0,1,1.78,0l10,19.93A12.13,12.13,0,0,1,46.81,40.05Zm0-34.81L37.74,23.38a10.14,10.14,0,1,0,18.14,0Z"/><path d="M46.81,35.05a1,1,0,0,1,0-2,5.13,5.13,0,0,0,4.59-7.44,1,1,0,0,1,1.79-.89,7.13,7.13,0,0,1-6.38,10.33Z"/></svg>
